<?xml version="1.0" encoding="iso-8859-1"?>
<!-- Uploaded to: SVG Repo, www.svgrepo.com, Generator: SVG Repo Mixer Tools -->
<svg fill="#000000" version="1.1" id="Layer_1" xmlns="http://www.w3.org/2000/svg" xmlns:xlink="http://www.w3.org/1999/xlink" 
	 viewBox="0 0 511.999 511.999" xml:space="preserve">
<g>
	<g>
		
			<rect x="312.427" y="401.046" transform="matrix(0.4006 -0.9163 0.9163 0.4006 -183.3551 539.3776)" width="16.274" height="17.559"/>
	</g>
</g>
<g>
	<g>
		
			<rect x="191.352" y="348.735" transform="matrix(0.3945 -0.9189 0.9189 0.3945 -207.7484 399.7983)" width="16.273" height="17.602"/>
	</g>
</g>
<g>
	<g>
		<path d="M483.786,338.047l-31.932-80.531L256.74,335.034L63.896,251.851l-34.311,79.555l113.294,48.886L28.213,425.803
			l16.014,40.25l15.917,40.282l195.194-77.518l192.774,83.182l34.312-79.558l-113.28-48.853L483.786,338.047z M442.731,278.651
			l6.964,17.563l-115.027,45.711l6.009,15.122l115.017-45.706l6.973,17.585l-114.372,45.435l0.11,0.277l-70.546-30.484
			L442.731,278.651z M69.289,485.196l-6.942-17.57l106.821-42.45l-6.009-15.122l-106.81,42.445l-6.993-17.578l114.659-45.509
			l70.195,30.289L69.289,485.196z M461.038,440.941l-7.48,17.343L348.014,412.78l-6.442,14.943l105.542,45.502l-7.497,17.382
			L50.971,322.911l7.453-17.28l113.657,48.953l6.448-14.941L64.869,290.687l7.525-17.448L461.038,440.941z"/>
	</g>
</g>
<g>
	<g>
		<path d="M321.805,93.474c-27.264-47.066-58.244-84.405-59.549-85.972L256.004,0l-6.251,7.501
			c-1.305,1.567-32.285,38.906-59.549,85.972c-37.553,64.825-48.759,114.423-33.307,147.415
			c13.577,28.986,46.921,43.684,99.108,43.684c52.186,0,85.532-14.697,99.108-43.683
			C370.565,207.897,359.359,158.299,321.805,93.474z M340.375,233.985c-10.664,22.767-39.051,34.312-84.371,34.312
			c-45.317,0-73.702-11.543-84.367-34.307c-12.865-27.456-1.612-73.164,32.542-132.176c19.429-33.57,41.335-62.71,51.826-76.091
			c10.465,13.345,32.295,42.378,51.718,75.907C341.959,160.729,353.249,206.497,340.375,233.985z"/>
	</g>
</g>
<g>
	<g>
		<path d="M295.01,141.781c-14.708-25.376-31.437-45.528-32.141-46.374l-6.251-7.499l-6.249,7.501
			c-0.704,0.846-17.424,21.003-32.121,46.382c-20.683,35.715-26.709,63.35-17.908,82.136c7.92,16.908,26.855,25.481,56.281,25.481
			c29.454,0,48.404-8.577,56.324-25.494C321.742,205.124,315.709,177.491,295.01,141.781z M298.204,217.018
			c-5.01,10.694-19.002,16.116-41.585,16.116c-22.557,0-36.534-5.419-41.543-16.105c-6.216-13.262-0.126-37.022,17.148-66.901
			c8.668-14.994,18.288-28.329,24.398-36.358c6.112,8.027,15.738,21.359,24.413,36.352
			C298.322,179.997,304.419,203.755,298.204,217.018z"/>
	</g>
</g>
<g>
	<g>
		<rect x="238.426" y="197.97" width="17.582" height="16.273"/>
	</g>
</g>
<g>
	<g>
		<rect x="256.001" y="180.395" width="17.582" height="16.273"/>
	</g>
</g>
</svg>