<?xml version="1.0" encoding="iso-8859-1"?>
<!-- Uploaded to: SVG Repo, www.svgrepo.com, Generator: SVG Repo Mixer Tools -->
<svg fill="#000000" version="1.1" id="Layer_1" xmlns="http://www.w3.org/2000/svg" xmlns:xlink="http://www.w3.org/1999/xlink" 
	 viewBox="0 0 512.001 512.001" xml:space="preserve">
<g>
	<g>
		<path d="M368.071,103.949V48.229h31.984V0H111.945v48.229h31.984v55.719H0V472.02h23.988v39.981h96.206V472.02h271.613v39.981
			h96.206V472.02h23.988V103.949H368.071z M128.19,31.984V16.245h255.62v15.739H128.19z M351.826,48.229v55.719h-15.739V48.229
			H351.826z M319.842,48.229v55.719H192.159V48.229H319.842z M175.914,48.229v55.719h-15.739V48.229H175.914z M103.949,495.755
			H40.233v-23.736h63.715V495.755z M471.768,495.755h-63.715v-23.736h63.715V495.755z M495.755,159.921H343.957v16.245h103.822
			v215.767h16.245V176.166h31.73v279.609H16.245V176.166h31.73v215.767h16.245V176.166h103.822v-16.245H16.245v-39.726h479.509
			V159.921z"/>
	</g>
</g>
<g>
	<g>
		<path d="M312.1,231.885v-71.965H199.902v71.965h-71.965v112.198h71.965v71.965H312.1v-71.965h71.965V231.885H312.1z
			 M367.819,327.838h-71.965v71.965h-79.707v-71.965h-71.965v-79.707h71.965v-71.965h79.707v71.965h71.965V327.838z"/>
	</g>
</g>
<g>
	<g>
		<rect x="248.002" y="191.901" width="15.992" height="16.245"/>
	</g>
</g>
<g>
	<g>
		<rect x="248.002" y="367.817" width="15.992" height="16.245"/>
	</g>
</g>
<g>
	<g>
		<rect x="335.965" y="279.864" width="15.992" height="16.245"/>
	</g>
</g>
<g>
	<g>
		<rect x="160.049" y="279.864" width="15.992" height="16.245"/>
	</g>
</g>
<g>
	<g>
		<rect x="48.108" y="407.802" width="15.992" height="16.245"/>
	</g>
</g>
<g>
	<g>
		<rect x="447.907" y="407.802" width="15.993" height="16.245"/>
	</g>
</g>
</svg>