<?xml version="1.0" encoding="iso-8859-1"?>
<!-- Uploaded to: SVG Repo, www.svgrepo.com, Generator: SVG Repo Mixer Tools -->
<svg fill="#000000" version="1.1" id="Layer_1" xmlns="http://www.w3.org/2000/svg" xmlns:xlink="http://www.w3.org/1999/xlink" 
	 viewBox="0 0 511.999 511.999" xml:space="preserve">
<g>
	<g>
		<path d="M212.18,21.571v44.5h87.64v-44.5H212.18z M284.081,50.332h-56.163V37.31h56.163V50.332z"/>
	</g>
</g>
<g>
	<g>
		<rect x="248.811" y="71.906" width="14.38" height="15.739"/>
	</g>
</g>
<g>
	<g>
		<rect x="248.811" y="100.666" width="14.38" height="15.739"/>
	</g>
</g>
<g>
	<g>
		<rect x="248.811" y="129.426" width="14.38" height="15.739"/>
	</g>
</g>
<g>
	<g>
		<path d="M292.63,230.087V87.641h35.951V0H183.419v87.641h35.951v142.445h-86.283v258.867L256,511.999l122.912-23.046V230.087
			H292.63z M199.157,71.902V15.739h113.684v56.163h-35.951v158.184h-41.783V71.902H199.157z M263.87,494.511V353.678h64.032v-15.739
			H184.097v15.739h64.032v140.833l-99.305-18.619V245.826h214.348v230.066h0.001L263.87,494.511z"/>
	</g>
</g>
<g>
	<g>
		<rect x="162.53" y="258.842" width="14.38" height="15.739"/>
	</g>
</g>
<g>
	<g>
		<rect x="191.29" y="258.842" width="14.38" height="15.739"/>
	</g>
</g>
<g>
	<g>
		<rect x="162.53" y="287.613" width="14.38" height="15.739"/>
	</g>
</g>
</svg>