<svg xmlns="http://www.w3.org/2000/svg" width="75.891" height="74.848" viewBox="0 0 75.891 74.848"><g transform="translate(-124.925 -31.565)"><path d="M191.886,45.7a2.153,2.153,0,0,0-1.488-.669,1.273,1.273,0,0,0-.521.074c-2.306.744-3.125,2.158-2.9,4.911,0,.3,3.124,26.338,3.571,29.315l.074.52c.3,2.232.67,4.762,3.348,6.25a2.038,2.038,0,0,0,1.042.3h0c.149,0,.521,0,.819-.6a37.368,37.368,0,0,0,4.017-16.89A36.315,36.315,0,0,0,191.886,45.7ZM152.75,57.084c.521,1.191,2.009,4.167,3.423,7.143,1.413,2.9,2.9,5.878,3.5,7.217l.372.893c.446,1.041,1.116,2.381,1.637,3.571.52,1.265.892,2.232,1.041,2.679,0,.074.075.148.075.223a24.208,24.208,0,0,1,.52,2.976,13.989,13.989,0,0,1,.521-5.208c2.307-4.539,6.176-12.426,7.217-14.583.968-2.084,2.009-4.39,2.976-6.622.521-1.116.968-2.232,1.488-3.274a10.576,10.576,0,0,0,.6-1.637v-.074c1.711-4.018,3.05-8.557,3.05-12.426a3.7,3.7,0,0,0-1.339-2.678,19.539,19.539,0,0,0-5.655-2.455,28.478,28.478,0,0,0-9.9-1.265,36.5,36.5,0,0,0-13.1,2.381,29.11,29.11,0,0,0-4.241,1.934c-1.935,1.116-.967,3.2-.744,3.646C146.8,44.064,152.081,55.6,152.75,57.084ZM134.224,79.851l.074-.52c.447-2.977,3.572-29.018,3.572-29.241.223-2.753-.6-4.166-2.9-4.91a1.258,1.258,0,0,0-.521-.075,2.319,2.319,0,0,0-1.488.67,36.458,36.458,0,0,0-8.036,23.139,37.369,37.369,0,0,0,4.018,16.89.912.912,0,0,0,.819.6,2.243,2.243,0,0,0,1.041-.3C133.554,84.613,133.926,82.083,134.224,79.851Zm57.811,10.194a47.334,47.334,0,0,0-7.366-.447,48.049,48.049,0,0,0-7.217.447h-.893a.746.746,0,0,1-.744-.744V87.887a.746.746,0,0,1,.744-.744h0a5.9,5.9,0,0,0,4.241-1.711c1.042-1.191,1.414-2.976,1.116-5.432-.521-4.91-2.455-19.865-3.125-25.371a101,101,0,0,1-4.985,11.458c-.223.372-.521,1.041-.967,1.86-2.158,4.018-6.473,12.5-7.366,14.806a31.241,31.241,0,0,0-2.083,9.077v.3a.734.734,0,0,1-.744.67h-3.423a.734.734,0,0,1-.744-.67v-.447c-.372-4.092-2.083-7.961-4.613-13.243-.669-1.34-7.142-14.583-8.11-16.443a91.775,91.775,0,0,1-3.645-8.557c-.372,2.679-1.042,7.366-1.712,11.905-.893,6.026-1.711,11.681-1.86,12.8l-.074.372c-.223,1.563-.6,4.911,1.116,6.92a5.779,5.779,0,0,0,4.538,1.711h.149a.746.746,0,0,1,.744.744v1.19a.745.745,0,0,1-.744.744h-1.562a34.075,34.075,0,0,0-4.241-.223c-1.712,0-3.2,0-4.39.075a9.24,9.24,0,0,0-1.339.148c-.075,0-.447.075-.521.3v.372a3.569,3.569,0,0,0,.67,1.414,37.505,37.505,0,0,0,59.6-.447,1.43,1.43,0,0,0,.3-.818.273.273,0,0,0-.074-.223c0-.075-.075-.075-.075-.149A3.243,3.243,0,0,0,192.035,90.045Z" fill="#50c9b5"/><path d="M196.127,92.351h-.967v-.372h2.381v.372h-.967v2.083h-.447Zm1.86-.372h.372l1.042,1.265,1.041-1.265h.373v2.455h-.447V92.649l-.967,1.19h-.075l-.967-1.19v1.785h-.446V91.979Z" fill="#50c9b5"/></g></svg>