<?xml version="1.0" encoding="utf-8"?>
<!-- Generator: Adobe Illustrator 26.5.3, SVG Export Plug-In . SVG Version: 6.00 Build 0)  -->
<svg version="1.1" id="Layer_1" xmlns="http://www.w3.org/2000/svg" xmlns:xlink="http://www.w3.org/1999/xlink" x="0px" y="0px"
	 viewBox="0 0 1999.44 1999.44" style="enable-background:new 0 0 1999.44 1999.44;" xml:space="preserve">
<style type="text/css">
	.st0{fill:#FF8B00;}
	.st1{fill:#00B7A7;}
	.st2{fill:#00B7A7;}
	.st3{fill:#5B190D;}
</style>
<g>
	<circle class="st0" cx="1015.97" cy="1117.83" r="852.27"/>
	<path class="st1" d="M386.17,1183.3c0,0,24.79-21.41,65.35-24.79s73.24-40.8,81.13-40.68c7.89,0.12,24.79,13.64,45.07,13.64
		c20.28,0,27.04-13.64,27.04-13.64s29.3,24.91,49.58,6.88c20.28-18.03,25.92-31.55,25.92-31.55s11.27,9.01,21.41,14.65
		c10.14,5.63,18.03,11.27,23.66,19.15c5.63,7.89,21.41,11.27,21.41,11.27s12.39-9.01,21.41-11.27c9.01-2.25,25.92-3.38,25.92-3.38
		s-48.45-92.39,57.46-112.67c105.91-20.28,127.32,79.76,111.55,106.92c48.45,5.75,85.04,21.75,96.68,27.57
		c30.25-20.95,136.15-1.16,136.15-1.16s38.4-1.16,47.71-1.16c20.95-41.89,23.27-68.66,62.84-57.02s44.22,27.67,44.22,27.67
		s18.62-22.23,32.58-17.97c13.96,4.26,59.35,22.07,59.35,22.07s6.98-11.99,25.6-29.45c18.62-17.45,15.13-5.82,29.09-20.95
		c13.96-15.13,13.96,1.16,31.42,6.98c17.45,5.82,66.33,50.04,93.09,47.71c26.76-2.33,68.66-26.76,87.27-19.78
		c18.62,6.98-16.29,175.71-24.44,180.37c-8.15,4.65-45.38-5.82-121.02-37.24c-75.64-31.42-121.02-47.71-141.97-61.67
		c-20.95-13.96-9.31-27.91-62.84-37.81c-53.53-9.9-10.47,21.52-128,63.41s-202.47,40.73-265.31,41.89
		c-62.84,1.16-121.02,1.16-144.29,15.13c-23.27,13.96-32.58,6.98-70.98,8.15c-38.4,1.16-59.35,20.95-89.6,30.25
		s-90.76,9.31-145.46,16.29c-54.69,6.98-62.84,20.95-91.93,23.27s-55.86-9.31-59.35-11.64
		C360.39,1330.42,321.19,1258.44,386.17,1183.3z"/>
	<g>
		<path class="st2" d="M1817.94,1423.37l122.3,219.12h-246.88c14.76-18.8,28.72-38.27,41.8-58.32
			c20.27-30.7,38.49-62.73,54.58-96.01C1800.09,1467.08,1809.49,1445.41,1817.94,1423.37z"/>
		<path class="st2" d="M1875.6,1113.69c0,109.23-20.42,213.68-57.66,309.69l-13.22-23.8c32.39-89.18,50.1-185.48,50.1-285.89
			c0-404.08-286.26-741.24-667.05-819.84l-13.37-23.87C1573.41,343.65,1875.6,693.37,1875.6,1113.69z"/>
		<path class="st2" d="M1804.72,1399.57l13.22,23.8c-8.45,22.04-17.85,43.71-28.21,64.79l-12.41-22.26
			C1787.38,1444.31,1796.49,1422.2,1804.72,1399.57z"/>
		<path class="st2" d="M1777.32,1465.91l12.41,22.26c-16.09,33.28-34.3,65.3-54.58,96.01h-24.97
			C1735.67,1546.85,1758.15,1507.26,1777.32,1465.91z"/>
		<path class="st2" d="M1710.18,1584.17h24.97c-13.08,20.05-27.03,39.52-41.8,58.32h-26.74
			C1682.05,1623.69,1696.59,1604.3,1710.18,1584.17z"/>
		<path class="st2" d="M1531.83,1584.17h178.35c-13.59,20.13-28.13,39.52-43.56,58.32h-194.95
			C1492.9,1624.28,1513.03,1604.81,1531.83,1584.17z"/>
		<path class="st2" d="M1714.59,1113.69c0,37.17-2.94,73.6-8.52,109.15l-15.06-26.96c3.31-26.96,4.99-54.36,4.99-82.2
			c0-273.33-161.75-508.97-394.68-616.29l-15.06-26.96C1537.85,575.55,1714.59,823.98,1714.59,1113.69z"/>
		<path class="st2" d="M1691.01,1195.88l15.06,26.96c-4.41,28.13-10.5,55.75-18.22,82.71l-13-23.21
			C1682.05,1254.21,1687.48,1225.34,1691.01,1195.88z"/>
		<path class="st2" d="M1666.62,1642.49h26.74c-157.05,200.46-401.36,329.23-675.72,329.23c-274.43,0-518.74-128.77-675.79-329.23
			h26.74c153.45,188.19,387.18,308.44,649.05,308.44C1279.44,1950.93,1513.25,1830.69,1666.62,1642.49z"/>
		<path class="st2" d="M1301.33,497.39l389.68,698.49c-3.53,29.46-8.96,58.32-16.16,86.46l-455.57-816.53l-12.93-23.21l-89.4-160.13
			c23.95,2.72,47.53,6.54,70.81,11.39l98.5,176.59L1301.33,497.39z"/>
		<path class="st2" d="M1674.85,1282.34l13,23.21c-30.04,105.11-84.11,200.17-156.02,278.62h-25.56
			C1586.34,1501.09,1645.39,1397.59,1674.85,1282.34z"/>
		<path class="st2" d="M1506.27,1584.17h25.56c-18.81,20.64-38.93,40.11-60.16,58.32h-29.16
			C1464.99,1624.42,1486.29,1604.96,1506.27,1584.17z"/>
		<path class="st2" d="M528.94,1584.17h977.33c-19.98,20.79-41.28,40.25-63.76,58.32H592.78
			C570.23,1624.5,548.92,1604.96,528.94,1584.17z"/>
		<path class="st2" d="M1442.51,1642.49h29.16c-121.94,104.82-280.6,168.21-454.03,168.21c-173.5,0-332.17-63.39-454.1-168.21h29.24
			c116.28,93.66,264,149.56,424.87,149.56C1178.51,1792.05,1326.23,1736.07,1442.51,1642.49z"/>
		<path class="st2" d="M1206.35,442.6l12.93,23.21c-63.69-19.83-131.41-30.48-201.63-30.48c-61.85,0-121.72,8.3-178.64,23.8
			l13.81-22.7c52.81-12.93,108.05-19.69,164.83-19.69C1083.02,416.74,1146.34,425.78,1206.35,442.6z"/>
		<path class="st2" d="M1174.4,269.98l13.37,23.87c-23.29-4.85-46.86-8.67-70.81-11.39l-12.56-22.48
			C1128.05,262.34,1151.41,265.72,1174.4,269.98z"/>
		<path class="st2" d="M1039.24,27.72l135.16,242.26c-22.99-4.26-46.35-7.64-70-9.99c-28.5-2.86-57.44-4.33-86.75-4.33
			c-18.88,0-37.68,0.59-56.27,1.91c-22.18,1.32-44.07,3.6-65.74,6.76L1039.24,27.72z"/>
		<path class="st2" d="M1104.39,259.99l12.56,22.48c-32.54-3.97-65.74-5.95-99.31-5.95c-23.43,0-46.64,0.95-69.56,2.86l13.3-21.82
			c18.58-1.32,37.39-1.91,56.27-1.91C1046.95,255.65,1075.89,257.12,1104.39,259.99z"/>
		<path class="st2" d="M961.38,257.56l-13.3,21.82c-22.48,1.84-44.66,4.55-66.55,8.23l14.1-23.29
			C917.3,261.16,939.19,258.88,961.38,257.56z"/>
		<path class="st2" d="M895.63,264.32l-14.1,23.29c-397.69,64.93-701.13,410.1-701.13,826.08c0,91.08,14.54,178.72,41.43,260.77
			l-14.03,23.21c-31.22-88.88-48.19-184.45-48.19-283.98C159.61,681.25,479.51,323.53,895.63,264.32z"/>
		<path class="st2" d="M852.81,436.43L839,459.12c-26.59,7.2-52.45,16.01-77.57,26.3l15.87-26.15
			C801.83,450.24,827.03,442.6,852.81,436.43z"/>
		<path class="st2" d="M839,459.12l-484.44,798.24c-5.8-26.44-9.99-53.48-12.41-81.02l419.28-690.92
			C786.55,475.14,812.41,466.32,839,459.12z"/>
		<path class="st2" d="M777.3,459.27l-15.87,26.15C513.74,586.5,339.21,829.71,339.21,1113.69c0,21.16,0.95,42.02,2.94,62.66
			l-15.94,26.15c-3.67-29.09-5.58-58.69-5.58-88.81C320.62,813.25,510.73,557.19,777.3,459.27z"/>
		<path class="st2" d="M592.78,1642.49h-29.24c-21.23-18.22-41.36-37.68-60.16-58.32h25.56
			C548.92,1604.96,570.23,1624.5,592.78,1642.49z"/>
		<path class="st2" d="M528.94,1584.17h-25.56c-77.64-84.77-134.5-188.78-162.7-304.03l13.88-22.77
			C381.52,1382.68,443.15,1495.14,528.94,1584.17z"/>
		<path class="st2" d="M368.59,1642.49h-26.74c-14.76-18.8-28.72-38.27-41.8-58.32h24.97
			C338.62,1604.3,353.16,1623.69,368.59,1642.49z"/>
		<path class="st2" d="M354.56,1257.37l-13.88,22.77c-6.24-25.34-11.09-51.27-14.47-77.64l15.94-26.15
			C344.57,1203.89,348.76,1230.92,354.56,1257.37z"/>
		<path class="st2" d="M341.85,1642.49H59.2l148.6-244.83c7.2,20.86,15.35,41.36,24.24,61.48c19.17,43.71,41.94,85.5,68.02,125.02
			C313.13,1604.22,327.09,1623.69,341.85,1642.49z"/>
		<path class="st2" d="M340.68,1280.14l-95.42,157.19c-8.67-20.57-16.45-41.5-23.43-62.88l104.38-171.96
			C329.59,1228.86,334.43,1254.79,340.68,1280.14z"/>
		<path class="st2" d="M325.03,1584.17h-24.97c-26.08-39.52-48.85-81.32-68.02-125.02l13.22-21.82
			C267,1489.12,293.74,1538.26,325.03,1584.17z"/>
		<path class="st2" d="M245.26,1437.33l-13.22,21.82c-8.89-20.13-17.04-40.62-24.24-61.48l14.03-23.21
			C228.8,1395.83,236.59,1416.76,245.26,1437.33z"/>
	</g>
	<g>
		<polygon class="st3" points="472.71,1668.02 517.6,1646.47 522.42,1646.22 504.58,1629.23 503.17,1633.64 480.26,1646.48 
			489.28,1620.41 493.48,1618.65 476.44,1602.43 476.75,1607.75 476.69,1607.94 460.49,1656.9 435.07,1686.15 431.07,1687.68 
			446.27,1702.17 447.19,1697.43 		"/>
		<path class="st3" d="M497.23,1722.73c2.05-1.44,3.59-2.81,4.57-4.07l11.6-14.82c0.55-0.7,1.15-1.6,1.77-2.66
			c0.61-1.03,1.09-2.29,1.44-3.74l0.01-0.03c1.12-4.18,1.25-8.58,0.38-13.1c-0.85-4.44-3.32-8.44-7.31-11.89l-0.96-0.82
			c-3.6-3.1-7.18-4.93-10.66-5.45c-1.11-0.17-2.22-0.24-3.34-0.24c-2.43,0-4.87,0.39-7.29,1.16c-1.46,0.48-3,1.31-4.57,2.48
			c-1.56,1.15-3.01,2.57-4.32,4.23l-11.59,14.8c-1.83,2.35-3.09,4.97-3.74,7.78c-0.66,2.85-0.82,5.74-0.46,8.61
			c0.35,2.86,1.22,5.64,2.58,8.26c1.35,2.6,3.17,4.9,5.42,6.85l2.28,1.98c2.79,2.51,5.68,4,8.59,4.42c2.99,0.43,5.84,0.27,8.47-0.47
			C492.81,1725.26,495.19,1724.16,497.23,1722.73z M486.84,1710.26c-0.38,0.12-0.77,0.17-1.15,0.17c-1.01,0-2-0.4-2.92-1.19
			l-2.86-2.47c-1.24-1.07-1.89-2.43-1.93-4.05c-0.05-1.55,0.3-2.82,1.03-3.74l11.6-14.82c2.28-2.59,4.81-2.88,7.17-0.82l3.05,2.63
			c1.11,0.96,1.68,2.26,1.69,3.86c0,1.53-0.37,2.77-1.08,3.69l-11.59,14.81C489.15,1709.23,488.14,1709.87,486.84,1710.26z"/>
		<path class="st3" d="M508.67,1749.91l26.33,20.07l1.51-8l28.5-41.08l3.98-2.4l-16.3-12.43l-0.9,5.27l-19.94,28.83
			c-1.08,1.56-2.16,2.43-3.31,2.66c-1.13,0.24-2.44-0.2-3.97-1.34l-3.1-2.36c-1.37-1.04-2.17-2.25-2.37-3.57
			c-0.2-1.32,0.2-2.73,1.2-4.17l20.26-29.14l4.1-2.29l-16.21-12.35l-1.04,5.16l-22.48,32.51c-2.95,4.41-4.12,8.88-3.45,13.29
			C502.17,1742.97,504.58,1746.79,508.67,1749.91z"/>
		<path class="st3" d="M574.45,1777.17c-1.25-0.85-2.1-2.23-2.51-4.12c-0.43-1.91-0.2-3.59,0.66-4.98l15.28-24.77l5.58,3.94
			l2.13,4.05l6.66-10.77l-8.91-6.07l9.15-14.82l3.07-1.26l-15.69-10.68l0.16,3.46l-9.15,14.83l-7.87-5.35l-6.53,10.57l3.42-0.12
			l5.52,3.75l-15.29,24.78c-1.36,2.21-2.29,4.55-2.75,6.94c-0.47,2.44-0.56,4.82-0.26,7.12c0.3,2.34,0.95,4.63,1.93,6.8
			c0.99,2.21,2.24,4.18,3.71,5.85c0.49,0.31,1.18,1.12,1.92,2.31c0.73,1.17,1.25,1.67,1.55,1.87l3.64,2.48l8.22-13.3L574.45,1777.17
			z"/>
		<path class="st3" d="M624.47,1715.97l-0.4,4.72l-41.33,75.16l-3.34,2.34l16.14,9.79l0.4-4.73l18.99-34.65l7.78,4.71
			c2.44,1.58,3.01,3.97,1.59,6.57l-16.99,30.8l-3.49,2.26l16.27,9.9l0.17-4.32c0.04-1,0.77-2.16,1.73-3.55
			c0.26-0.38,0.49-0.71,0.62-0.96l14.01-25.57c0.24-0.44,0.5-0.89,0.76-1.34c0.94-1.65,1.92-3.34,2.3-5.13
			c0.75-3.5,0.34-7.95-1.08-11.89c-1.64-4.53-4.52-7.96-8.82-10.49l-7.48-4.56l14.89-26.88l3.42-2.41L624.47,1715.97z"/>
		<polygon class="st3" points="648.04,1837.04 686.65,1856.41 694.4,1839.37 689.78,1839.26 671.21,1829.94 680.92,1808.58 
			693.84,1815.19 696.39,1818.78 705.05,1799.76 700.42,1799.64 687.86,1793.34 696.4,1774.57 715.32,1784.18 717.93,1787.69 
			725.72,1770.56 687,1751.12 686.48,1757.21 651.25,1834.37 		"/>
		<path class="st3" d="M755.32,1836.06c0.87-0.37,1.74-0.75,2.59-1.14l0.36-0.16l5.43,2.23c1.35,0.55,2.27,1.4,2.74,2.52
			c0.51,1.23,0.44,2.74-0.21,4.49l-12.62,33.51l-3.27,3.39l18.58,7.66l-0.3-5.06l14.06-37.6c0.35-1.8,0.53-3.97,0.5-6.27
			c-0.04-2.27-0.42-4.51-1.12-6.64c-0.7-2.12-1.8-4.1-3.26-5.9c-1.43-1.74-3.36-3.13-5.73-4.12l-6.32-2.6
			c-3.15-1.3-5.94-1.65-8.29-0.98c-2.43,0.66-4.5,1.67-6.16,2.99l-1.14,0.91l-0.37-1.46c-0.58-2.27-1.5-4.49-2.75-6.61
			c-1.19-2.02-3.41-3.8-6.6-5.29l-25.07-10.34l0.33,4.93l-18.81,50.03l-3.35,3.33l18.58,7.66l-0.21-5.04l3.68-9.84l8.79-23.52
			c0.87-2.33,2.36-3.07,3.45-3.27c1.4-0.26,2.95-0.06,4.56,0.61l2.29,0.95c1.34,0.55,2.35,1.42,2.99,2.58
			c0.68,1.25,0.67,2.8-0.01,4.61l-12.5,33.41l-3.83,3.31l18.78,7.74l-0.66-5.16l3.7-9.9l8.79-23.51
			C753.38,1837.36,754.18,1836.54,755.32,1836.06z"/>
		<path class="st3" d="M829.78,1882.58l5.1-17.46c0.49-2.47,0.46-5.28-0.1-8.27c-0.57-3.01-1.57-5.92-2.97-8.64
			c-1.41-2.72-3.16-5.16-5.19-7.23c-1.99-2.06-4.16-3.47-6.44-4.21h0l-24.06-7.77l0.72,6.27l-24.03,82.07l-3.38,3.41l18.79,6.07
			l-0.98-4.82l0.07-0.25l7.76-26.48l7.29,2.36c1.33,0.43,2.66,0.79,3.98,1.08c1.19,0.26,2.5,0.29,3.9,0.06
			c4.67-0.74,8.64-2.52,11.79-5.3C825.21,1890.69,827.82,1887.02,829.78,1882.58z M819.98,1860.31l-5.15,17.6
			c-0.43,1.47-1.45,2.72-3.03,3.73c-1.05,0.66-2.13,0.99-3.22,0.99c-0.58,0-1.16-0.1-1.75-0.28l-7.29-2.34l8.82-30.19l7.3,2.36
			c1.66,0.53,2.93,1.66,3.74,3.37C820.22,1857.22,820.41,1858.82,819.98,1860.31z"/>
		<polygon class="st3" points="872.67,1824.84 875.46,1821.66 857.19,1816.71 858.23,1821.18 837.47,1905.58 834.67,1908.75 
			852.95,1913.69 851.9,1909.23 		"/>
		<path class="st3" d="M908.83,1915.97c2.02-1.97,3.64-4.12,4.8-6.41c1.16-2.27,1.91-4.24,2.21-5.84l3.61-18.79
			c0.17-0.89,0.29-1.94,0.38-3.23c0.08-1.21-0.05-2.52-0.4-4.02l0-0.02c-0.87-4.25-2.73-8.19-5.51-11.75
			c-2.78-3.54-6.63-5.8-11.78-6.9l-1.21-0.24c-1.98-0.43-3.86-0.63-5.61-0.63c-2.29,0-4.37,0.36-6.24,1.07
			c-3.34,1.27-6.36,3.31-8.98,6.05c-1.1,1.19-2.06,2.64-2.93,4.44c-0.87,1.78-1.51,3.75-1.91,5.86l-3.62,18.8
			c-0.57,2.97-0.51,5.9,0.18,8.71c0.7,2.83,1.85,5.46,3.45,7.82c1.59,2.36,3.6,4.38,5.97,6.01c2.37,1.64,5.01,2.78,7.86,3.38
			l2.9,0.62c3.59,0.85,6.81,0.73,9.56-0.33C904.37,1919.48,906.81,1917.94,908.83,1915.97z M898.87,1903.7
			c-0.81,0.81-1.79,1.23-2.93,1.23c-0.35,0-0.72-0.04-1.11-0.12l-3.63-0.78c-1.58-0.33-2.76-1.22-3.51-2.62
			c-0.73-1.36-0.99-2.64-0.76-3.81l3.61-18.8c0.85-3.39,2.94-4.88,5.95-4.28l3.87,0.82c1.42,0.31,2.5,1.18,3.22,2.58
			c0.69,1.36,0.92,2.63,0.69,3.79l-3.61,18.79C900.45,1901.66,899.85,1902.73,898.87,1903.7z"/>
		<path class="st3" d="M958.79,1871.58l-0.03,0.25l-5.4,42.36l-7.43-1.05c-1.84-0.36-3.25-1.28-4.23-2.75
			c-0.98-1.46-1.37-3.02-1.16-4.63l4.72-36.25l2.33-3.84l-18.89-2.66l1.35,4.56l-0.03,0.22l-4.57,35.83
			c-0.37,2.93-0.14,5.82,0.68,8.61c0.83,2.84,2.11,5.43,3.8,7.69c1.68,2.28,3.77,4.22,6.2,5.77c2.4,1.53,5.04,2.51,7.83,2.9
			l7.43,1.05l-1.21,9.48c-0.21,1.57-1.07,2.93-2.58,4.04c-1.48,1.11-2.99,1.54-4.44,1.35l-1.22-0.17c-1.57-0.21-2.7-0.63-3.46-1.29
			l-0.95-0.96c-0.8-1.09-1.14-1.97-1.14-2.81c0-0.35,0.01-0.7,0.03-1.08l-16.11-2.26l1.64,2.1l0.47,0.06l0.11,0.92
			c-0.03,2.66,0.33,5.22,1.06,7.62c0.72,2.36,1.83,4.5,3.32,6.37c1.48,1.84,3.34,3.4,5.51,4.62c2.16,1.22,4.69,2.03,7.5,2.44
			l1.22,0.17c3.03,0.36,5.95,0.14,8.67-0.6c2.7-0.74,5.14-1.95,7.25-3.6c2.09-1.64,3.88-3.74,5.32-6.25
			c1.42-2.49,2.35-5.37,2.75-8.56l8.74-67.72l2.41-3.81l-19.13-2.7L958.79,1871.58z"/>
		<path class="st3" d="M1057.36,1930.07l-0.34-40.16c-0.32-1.82-0.92-3.9-1.77-6.01c-0.84-2.09-1.98-4.01-3.41-5.72
			c-1.4-1.7-3.13-3.11-5.11-4.18c-1.95-1.08-4.16-1.56-6.78-1.57l-6.8,0.06c-3.41,0.04-6.12,0.82-8.04,2.34
			c-2.03,1.59-3.59,3.34-4.64,5.2l-0.73,1.3l-0.87-1.2c-1.37-1.91-3.02-3.61-4.91-5.06c-1.81-1.4-4.5-2.17-8-2.31l-26.93,0.25
			l2.07,4.68l0.46,53.34l-2,4.62l19.96-0.2l-1.99-4.79l-0.3-35.64c-0.03-2.49,1.08-3.76,2.02-4.37c1.21-0.8,2.7-1.22,4.45-1.23
			l2.46-0.02c0.03,0,0.06,0,0.09,0c1.41,0,2.62,0.41,3.61,1.22c1.07,0.89,1.62,2.33,1.63,4.28l0.31,35.9l-2.37,4.58l20.18-0.2
			l-2.46-4.8l-0.3-35.62c-0.02-1.21,0.43-2.33,1.31-3.21c0.7-0.7,1.36-1.38,2-2.06l0.28-0.31l5.84-0.06c0.02,0,0.05,0,0.07,0
			c3.04,0,4.73,1.95,4.77,5.5l0.3,35.84l-1.91,4.63l19.94-0.2L1057.36,1930.07z"/>
		<path class="st3" d="M1092.01,1914.77L1092.01,1914.77l-4.18,0.45c-1.72,0.2-4.71-0.21-5.17-4.9l-0.78-7.96l30.14-3.24l-1.45-2.73
			l-0.81-8.26c-0.59-2.92-1.63-5.73-3.06-8.22c-1.43-2.51-3.21-4.67-5.26-6.45c-2.06-1.76-4.4-3.08-6.97-3.92
			c-1.86-0.61-3.82-0.92-5.86-0.92c-0.76,0-1.54,0.04-2.32,0.13l-2.96,0.32c-2.72,0.29-5.29,1.14-7.63,2.5
			c-2.35,1.38-4.36,3.16-5.99,5.31c-1.64,2.17-2.88,4.64-3.67,7.36c-0.79,2.73-1.05,5.65-0.76,8.68l1.86,19.08
			c0.29,3.01,1.1,5.82,2.41,8.34c1.32,2.52,2.96,4.63,5.02,6.44c2.02,1.76,4.34,3.08,6.89,3.91c2.54,0.83,5.22,1.09,7.95,0.82
			l2.95-0.32c2.57-0.28,4.99-1.02,7.18-2.21c2.2-1.18,4.14-2.72,5.77-4.59c1.62-1.87,2.93-4.04,3.88-6.46
			c0.95-2.42,1.45-4.99,1.5-7.62l0.01-0.35l1.38-1.77l-15.43,1.65c-0.02,1.37-0.41,2.47-1.15,3.27
			C1094.64,1914.06,1093.46,1914.61,1092.01,1914.77z M1081.03,1893.55l-0.1-1c-0.08-0.79-0.14-1.66-0.2-2.63
			c-0.05-1.08,0.08-2.14,0.4-3.15c0.34-1.08,0.95-2.01,1.81-2.77c0.87-0.78,2.08-1.24,3.7-1.42c1.77-0.2,3.22,0.07,4.32,0.78
			c1.07,0.69,1.9,1.56,2.47,2.6c0.56,1,0.93,2.02,1.12,3c0.17,0.95,0.29,1.64,0.33,2.08l0.1,1L1081.03,1893.55z"/>
		<path class="st3" d="M1170.43,1914.43l-6.75-39.54c-0.98-5.3-3.25-9.28-6.73-11.83c-3.49-2.55-7.79-3.39-12.76-2.43l-32.03,6.03
			l4.46,6.68l8.51,49.83l-1.15,4.9l19.82-3.73l-3-4.33l-5.99-35.07c-0.32-1.91-0.17-3.33,0.47-4.35c0.65-1.05,1.86-1.72,3.68-2.07
			l3.76-0.7c1.69-0.32,3.06-0.09,4.1,0.68c1.05,0.77,1.74,2.05,2.03,3.8l6.03,35.3l-1.33,4.9l19.7-3.71L1170.43,1914.43z"/>
		<path class="st3" d="M1214.19,1893.54l-4.21,1.11c-1.44,0.4-2.99,0.08-4.6-0.89c-1.6-0.96-2.62-2.27-3.02-3.88l-6.88-28.63
			l6.31-1.68l4.52,1.18l-3-12.45l-10.29,2.72l-4.11-17.12l1.21-3.23l-18.14,4.81l2.52,2.23l4.11,17.12l-9.09,2.41l2.93,12.22
			l2.24-2.71l6.38-1.7l6.87,28.63c0.61,2.55,1.62,4.86,2.98,6.85c1.38,2.02,3,3.72,4.8,5.05c1.82,1.35,3.85,2.4,6.05,3.14
			c2.15,0.72,4.35,1.1,6.51,1.13c0.32-0.07,0.69-0.11,1.1-0.11c0.55,0,1.19,0.06,1.92,0.2c1.31,0.24,1.99,0.17,2.35,0.1l4.21-1.12
			L1214.19,1893.54z"/>
		<path class="st3" d="M1277.36,1839.11c1.39-2.88,2.2-6.08,2.41-9.51c0.21-3.42-0.29-6.94-1.5-10.45l-0.88-2.56
			c-1.34-3.9-3.22-7.17-5.58-9.68c-2.36-2.53-5.1-4.41-8.13-5.59c-3.07-1.19-6.36-1.76-9.83-1.58c-3.52,0.12-7.08,0.86-10.61,2.19
			l0,0.01l-22.71,8.56l3.17,3.38l27.93,81.55l-0.44,4.63l18.89-7.13l-3.38-3.42l-11.6-33.88l8.22-3.09
			c3.11-1.36,5.93-3.23,8.33-5.54C1274.04,1844.66,1275.97,1842.02,1277.36,1839.11z M1262.67,1831.69
			c-0.5,1.05-1.17,2.02-1.97,2.86c-0.84,0.89-1.8,1.54-2.86,1.94h0l-8.21,3.1l-6.76-19.7l8.23-3.11c1.06-0.4,2.23-0.54,3.39-0.41
			c1.16,0.12,2.27,0.44,3.3,0.96c1.03,0.51,1.97,1.17,2.77,1.97c0.85,0.87,1.45,1.84,1.85,2.96l0.87,2.57
			c0.39,1.11,0.51,2.29,0.37,3.5C1263.49,1829.52,1263.17,1830.65,1262.67,1831.69z"/>
		<path class="st3" d="M1307.24,1834.52c-0.71-1.68-0.67-3.46,0.1-5.25c0.76-1.76,1.83-2.97,3.18-3.58l6.5-2.89l4.47,0.06
			l-7.04-16.85l-10.19,4.68c-2.39,1.29-4.59,3.09-6.47,5.35c-1.89,2.27-3.38,4.82-4.44,7.58c-1.04,2.71-1.61,5.62-1.68,8.65
			c-0.08,2.97,0.47,5.89,1.63,8.69l13.47,32.26l-0.32,5.01l18.08-8.33l-3.9-3.32L1307.24,1834.52z"/>
		<path class="st3" d="M1371.45,1847.3c3.3-1.72,5.73-3.92,7.23-6.56c1.55-2.7,2.53-5.52,2.93-8.37c0.39-2.88,0.36-5.63-0.1-8.16
			c-0.45-2.52-1.05-4.55-1.77-6.01l-8.42-17.01c-0.4-0.79-0.95-1.72-1.63-2.74c-0.66-0.99-1.57-1.95-2.71-2.86l-0.02-0.02
			c-3.22-2.73-7.03-4.59-11.32-5.51c-1.13-0.25-2.28-0.36-3.45-0.36c-3.19,0-6.49,0.92-9.84,2.76l-1.09,0.59
			c-4.14,2.25-7.15,5-8.96,8.15c-1.84,3.21-2.98,6.79-3.37,10.63c-0.15,1.62-0.03,3.44,0.37,5.39c0.4,1.95,1.07,3.91,2.02,5.83
			l8.43,17.01c1.33,2.7,3.13,4.93,5.35,6.67c2.22,1.74,4.7,3.03,7.36,3.83c2.64,0.79,5.4,1.03,8.23,0.75
			c2.83-0.3,5.57-1.16,8.15-2.56L1371.45,1847.3z M1364.03,1832.89l-3.3,1.8c-0.81,0.44-1.62,0.66-2.43,0.66
			c-0.63,0-1.25-0.13-1.87-0.39c-1.37-0.56-2.34-1.38-2.88-2.46l-8.42-17.01c-1.38-3.22-0.63-5.78,2.08-7.26l3.51-1.91
			c1.28-0.69,2.65-0.74,4.04-0.11c1.34,0.6,2.29,1.44,2.8,2.48l8.43,17.02c0.51,1.03,0.68,2.26,0.51,3.66
			C1366.32,1830.88,1365.47,1832.1,1364.03,1832.89z"/>
		<path class="st3" d="M1441,1817.11l-35.32-60.18l0.2-3.27l-21.11,13.65c-2.47,1.61-4.51,3.57-6.07,5.83
			c-1.56,2.26-2.67,4.74-3.29,7.36c-0.62,2.61-0.73,5.35-0.34,8.13c0.39,2.77,1.36,5.5,2.89,8.1l9.83,16.76
			c1.54,2.61,3.45,4.8,5.7,6.51c2.27,1.75,4.73,3,7.32,3.72c2.59,0.74,5.3,0.94,8.01,0.65c2.71-0.31,5.32-1.27,7.77-2.86l6.5-4.21
			l4.85,8.26c0.73,1.25,1.12,2.66,1.15,4.19c0.02,1.72-0.78,3.16-2.32,4.14l-2.1,1.37c-1.55,0.99-3.13,1.12-4.56,0.31
			c-0.99-0.55-1.83-1.27-2.5-2.13l-14.63,9.47l2.73,1.16l0.15,0.21c1.62,2.14,3.54,3.87,5.72,5.16c2.21,1.3,4.52,2.15,6.88,2.52
			c2.4,0.38,4.85,0.35,7.28-0.13c2.45-0.47,4.8-1.42,6.98-2.85c1.6-1.04,3.27-2.14,4.99-3.31c1.65-1.11,2.86-2.16,3.62-3.12
			c1.23-1.46,2.16-3.19,2.78-5.15c0.61-1.98,0.92-4.1,0.91-6.32c-0.01-2.21-0.35-4.56-1.02-6.95
			C1443.33,1821.74,1442.32,1819.38,1441,1817.11z M1408.6,1807.91c-0.88,0.57-1.82,0.85-2.81,0.85c-0.35,0-0.7-0.03-1.07-0.1
			c-1.45-0.28-2.72-1.48-3.89-3.66l-9.82-16.73c-0.81-1.37-1.07-2.68-0.8-3.89c0.29-1.28,1.17-2.4,2.62-3.35l6.49-4.2l15.78,26.87
			L1408.6,1807.91z"/>
		<path class="st3" d="M1438.08,1760.86c-1.02-1.51-1.32-3.26-0.9-5.18c0.41-1.89,1.23-3.3,2.44-4.18l5.81-4.2l4.39-0.88
			l-10.11-15.03l-9.09,6.75c-2.12,1.77-3.92,4.01-5.33,6.6c-1.42,2.63-2.4,5.43-2.9,8.34c-0.5,2.92-0.5,5.89,0,8.83
			c0.5,2.95,1.59,5.69,3.26,8.17l19.39,29.02l0.6,4.72l16.13-11.97l-4.46-2.43L1438.08,1760.86z"/>
		<path class="st3" d="M1480.56,1699.31l-20.64,17.5c-3.37,2.97-5.73,6.61-7.02,10.82c-1.28,4.19-1.24,8.27,0.14,12.12
			c0.41,1.61,0.96,2.9,1.66,3.93c0.75,1.1,1.58,2.25,2.5,3.44l11.48,14.93c0.92,1.19,1.82,2.29,2.69,3.3
			c0.81,0.93,1.9,1.76,3.24,2.47c1.79,1.02,3.76,1.68,5.88,1.98c2.18,0.29,4.33,0.29,6.41,0.01c2.11-0.29,4.14-0.82,6.01-1.56
			c1.83-0.71,3.36-1.59,4.57-2.62l20.81-17.64l-4.43-1.93l-0.15-0.21l-32.92-42.79L1480.56,1699.31z M1487.7,1752.89
			c-0.98,0.83-1.98,1.25-2.96,1.25c-1.37,0-2.7-0.8-3.92-2.37l-11.47-14.92c-1.1-1.42-1.59-2.81-1.46-4.1
			c0.12-1.18,0.74-2.25,1.84-3.19l7.27-6.17l17.97,23.35L1487.7,1752.89z"/>
		<path class="st3" d="M1544.26,1668.43l23.88,25.88l1.6,4.53l14.3-14.62l-4.66-1.95l-26.69-28.78c-1.42-1.08-3.23-2.15-5.23-3.05
			c-1.95-0.9-4.04-1.46-6.23-1.68c-2.14-0.21-4.31,0.04-6.45,0.7c-2.12,0.66-4.12,1.93-5.94,3.79l-4.87,4.97
			c-2.43,2.49-3.87,5.03-4.27,7.54c-0.42,2.61-0.4,5.01,0.07,7.12l0.32,1.47l-1.42-0.25c-2.21-0.38-4.53-0.41-6.87-0.09
			c-2.24,0.3-4.7,1.69-7.31,4.14l-19.29,19.72l4.57,1.87l35.51,38.44l1.51,4.57l14.3-14.61l-4.59-2.02l-23.68-25.54
			c-1.66-1.8-1.69-3.51-1.42-4.63c0.35-1.46,1.16-2.85,2.41-4.12l1.77-1.8c1.03-1.05,2.2-1.65,3.47-1.79c1.38-0.18,2.69,0.49,4,1.88
			l23.85,25.73l1.3,5.03l14.44-14.77l-4.75-1.5l-7.06-7.62l-16.79-18.1c-0.82-0.88-1.21-1.99-1.16-3.28
			c0.04-0.99,0.07-1.98,0.08-2.94l0.01-0.42l4.17-4.28C1539.34,1665.71,1541.88,1665.86,1544.26,1668.43z"/>
	</g>
	<g>
		<g>
			<path class="st3" d="M1134.16,517.94l-16.74,16.74l-63.68,148.99v123.27l10.21,17.14h-78.79l8.98-17.14V683.67l-63.68-148.99
				l-17.14-16.74h88.99l-8.16,16.74l29.39,71.84l25.72-71.84l-7.35-16.74H1134.16z"/>
			<path class="st3" d="M1143.95,794.29c0,8.71-2.73,15.79-8.16,21.23c-5.45,5.45-12.52,8.16-21.23,8.16
				c-8.72,0-15.92-2.72-21.63-8.16c-5.72-5.44-8.57-12.51-8.57-21.23c0-6.53,2.85-12.38,8.57-17.55c5.71-5.16,12.92-7.75,21.63-7.75
				c8.7,0,15.77,2.59,21.23,7.75C1141.23,781.91,1143.95,787.76,1143.95,794.29z"/>
			<path class="st3" d="M1301.47,517.94h17.14v16.74v51.43l-17.14-8.57h-64.9v29.8v29.39h42.86l17.14-8.16v50.62v26.13l-17.14-8.98
				h-42.86v42.45v25.72h64.9l17.14-8.16v55.51v12.24h-17.14h-51.84h-51.43h-4.08h-13.06h-12.24l8.16-16.74v-68.58V607.34v-68.17
				l-8.16-21.23h12.24h13.06h4.08h46.53H1301.47z"/>
			<path class="st3" d="M1412.05,794.29c0,8.71-2.73,15.79-8.16,21.23c-5.45,5.45-12.52,8.16-21.23,8.16
				c-8.72,0-15.92-2.72-21.63-8.16c-5.72-5.44-8.57-12.51-8.57-21.23c0-6.53,2.85-12.38,8.57-17.55c5.71-5.16,12.92-7.75,21.63-7.75
				c8.7,0,15.77,2.59,21.23,7.75C1409.32,781.91,1412.05,787.76,1412.05,794.29z"/>
			<path class="st3" d="M1523.84,517.94c12.79,0,24.9,1.84,36.33,5.51c11.43,3.67,21.43,9.12,30.01,16.33
				c8.57,7.22,15.31,16.13,20.21,26.74c4.89,10.61,7.35,22.73,7.35,36.33v8.57c0,12.24-2.25,23.54-6.74,33.88
				c-4.49,10.34-10.62,19.19-18.37,26.53c-7.75,7.35-16.81,13.2-27.14,17.55c-10.34,4.36-21.36,6.81-33.06,7.35h-25.72v110.21
				l8.98,17.14h-76.74l8.16-17.14V534.68l-8.16-16.74h8.16h17.14h42.45H1523.84z M1532.41,636.73c3.26,0,6.46-0.75,9.59-2.25
				c3.13-1.49,5.92-3.4,8.37-5.71c2.45-2.31,4.42-4.96,5.92-7.96c1.49-2.99,2.25-6.12,2.25-9.39v-8.57c0-3.27-0.75-6.39-2.25-9.39
				c-1.5-2.99-3.47-5.71-5.92-8.16c-2.45-2.45-5.24-4.42-8.37-5.92c-3.13-1.49-6.33-2.25-9.59-2.25h-25.72v59.6H1532.41z"/>
			<path class="st3" d="M1600.17,794.29c0,8.71-2.73,15.79-8.16,21.23c-5.45,5.45-12.52,8.16-21.23,8.16
				c-8.72,0-15.92-2.72-21.63-8.16c-5.72-5.44-8.57-12.51-8.57-21.23c0-6.53,2.85-12.38,8.57-17.55c5.71-5.16,12.92-7.75,21.63-7.75
				c8.7,0,15.77,2.59,21.23,7.75C1597.44,781.91,1600.17,787.76,1600.17,794.29z"/>
		</g>
	</g>
	<g>
		<g>
			<path class="st3" d="M1393.29,1377.91c4.78-1.98,10.82-2.96,14.76-6.61v-0.22c-12.45-0.7-26.77,4.63-37.98,0.44
				c0.44-1.84,3.08-0.51,3.16-2.79c-10.76-3.95-24.83-0.7-35.77-6.83c-1.76-0.95-2.2-3.16,0.29-3.45c2.41-0.06,5.32-0.2,6.24-2.57
				c1.25-0.66,3.97,1.4,4.41-0.73c0.14-0.42,0.21-0.93,0.66-1.03c5.06,2.19,8.37,5,14.84,4.04c-1.73-2.23-5.01-4.19-7.05-6.46
				c-0.11-0.56,15.92-0.73,15.28-1.4c0.01-0.26-11.87-5.48-10.65-5.66c8.33,1.72,13.1-5.03,19.17-8.74
				c8.01-4.84,5.92-10.48-3.45-7.12c-3.39,0.22-13.53,6.78-14.54,1.54c-0.05-1.08,1.21-3.17,0.22-4.34
				c-4.67-0.13-9.59,2.81-13.88,3.67c-10.91,1.25-23.98-3.62-32.91-9.4c-0.96-1.49,1.59-1.77,2.57-1.91c3.46-0.2,7.12,0.52,9.4-2.57
				c2.74-0.12,4.33,3.42,6.98,3.89c3.86,0.85,7.5-0.24,11.61-1.25c4.63-1.44-3.07-4.72-2.28-6.17c3.35,0.15,10.94,6.34,8.3-0.59
				c-0.29-1.18,1.25-1.47,1.98-1.54c0.88,0,2.65-0.07,3.16-0.88c0.36-1.97-0.94-4.34,1.69-5.36c0.89-1.66-1.79-2.85-2.64-4.11
				c-1.17-3.89,5.24-6.06,6.24-9.7c0.15-0.37-0.07-0.81-0.44-0.95c-11.34,0.95-22.12,7.95-33.86,7.12
				c-11.51-1.61-16.22-13.98,0-7.42c0.88,0.29,3.82,0.95,4.19-0.59c0.06-2.96-5.55-6.09-6.98-8.37c2.28-1.81,7.85,1.06,10.43-1.62
				c1.54-2-1.95-2.81-3.45-2.79c-0.88-0.07-0.88-0.29-0.15-0.73c2.79-1.4,5.95-2.72,6.54-6.32c-15.64,3.38-39.28,6.27-54.73-2.57
				c4.58-0.73,6.67-0.42,4.85-5.95c-0.21-0.43,0.18-0.93,0.59-0.66c2.79,2.23,5.8,5.01,9.48,5.29c1.08-0.23,0.92-1.96,2.42-1.62
				c2.09,0.11,4.66,1.21,5.36-1.47c1.92-1.88,5.13-0.7,7.27-1.84c1.89-3.57-9.54-9.08-9.33-11.02c34.93,7.19,6.47-5.46,28.5-7.49
				c0.95-0.07,3.89-0.88,2.57-2.35c-0.88-1.03-2.86-1.4-4.19-1.84c1.24-1.29,7.52,1.13,8.37-1.98c-0.07-1.62,0.37-2.13,1.84-2.35
				c1.03-4.44-5.81-5.25-9.55-4.04v-0.15c-0.07-0.07,0-0.15,0.07-0.22c6.18-3.75-0.99-3.91-4.63-3.08
				c-1.97-0.45,1.46-3.93-0.44-4.11c-0.07,0.07-0.15,0.07-0.22,0.07c-5.8,3.06-12.82,2.28-18.88,4.7c-0.81,0.22-0.81,0.07-0.22-0.44
				c2.32-2.63,8.79-6.02,7.79-9.18c-1.9,0.13-8.71,5.08-8.67,1.62c1.03-1.4,2.87-3.23,2.79-5c-0.07-1.69-2.42-0.29-3.01,0.22
				c-2.42,2.2-4.99,4.04-7.71,5.66c-10.24,5.16-33.93,2.66-39.15-8.59c-0.08-2.27-1.65-4.07-2.94-5.95
				c1.47-2.58,3.48,2.35,4.63,3.16c5.07,2.24,9.64,0.23,15.57,2.42c3.59,1.35,2.54-3.78,2.65-5.95c3.35,1.24,6.64,4.48,10.43,5.44
				c3.01,0.67,2.76-3.16,0.88-4.41c4.29-2.64,11.7,1.09,17.04,0.15c5.83-1.15,7.11-2.07,2.64-6.61c-1.21-3.05,6.13-2,6.9-5
				c0.96-1.91-2.64-2.06-3.53-2.2c5.08-4.41,12.63-7.48,17.48-12.93c-4.93-1.33-9.81-1.29-13.15-5c-2.16-0.33-4.44,0.73-6.61,0.88
				c-1.41-0.74,3.97-4.42,0.51-5.66c-1.69-0.59-4.33,0.66-5.8,1.62c-5.19,3.26-12,3.8-18.14,3.16c-0.66-0.15-0.73-0.44-0.15-0.73
				c2.13-1.25,4.26-1.84,3.97-5.07c-0.36-1.28,0.22-6.27-2.28-4.48c-7.37,5.24-16.07,7.54-24.83,4.55
				c-10.76-3.28-25.67-8.61-32.4-17.41c2.3,0.2,4.73,3.24,6.91,2.35c0.69-0.66-0.14-5.18,1.25-3.45c0.66,1.18,2.2,4.19,3.97,3.67
				c3.08-1.17,6.82,3.65,9.62,3.53c1.07-1.77-0.54-6.11,1.4-6.98c3.86,3.93,13.46,10.59,12.56,0.07c0.7-1.33,1.45,4.79,2.5,5.73
				c2.03,0.49,4.36,1.12,6.46,2.28c3.53,1.54,4.33-5.22,7.93-4.41c1.5-1.7-1.02-4.86-0.29-7.05c0.07-0.07,0.15-0.15,0.22-0.22
				c4.45,0.93,13.23,5.28,6.76-3.01c-0.33-0.34,0.05-1.08,0.51-1.03c8.49,0.48-2.63-4.59,0.29-7.64c3.83-0.11,5.52,5.84,9.77,4.92
				c2.74-0.38,7.07,0.11,3.67-3.45c-1.91-2.64,0.07-4.19,2.57-4.19c4.48-0.07,8.23-3.97,11.46-6.76
				c-4.74-1.62-14.27,1.14-16.82-1.17c0.63-1.42,3.75-3.91,2.13-4.92c-2.9,0.2-20.74,14.15-13.22,3.53
				c0.43-0.44-0.32-0.64-0.59-0.44c-2.75,1.29-4.98,0.46-2.79-2.5c0.53-1.07,3.61-3.21,2.13-4.19
				c-8.43,2.31-13.39,13.82-23.07,11.24c-7.08-1.76-32.87-9.28-29.38-18.36c2.95-0.25,6.17,0.51,7.42,3.45
				c3.52,4.05,8.71,3.3,6.1-3.08c3.01,1.04,5.26,6.35,9.11,7.2c1.6,0.67,5.56,0.97,4.92-2.06c-2.68-20.99,10.64,4.16,18.44-1.98
				c0.1-3.18-9.8-7.91-8.59-10.87c4.14-1.1,4.08,3.9,6.91,4.11c1.03-0.29,1.69-0.15,2.35,0.66c1.15,1.74,8.5,3.21,8.74,1.1
				c0,0-3.82-3.16-3.82-3.16c0.11-3.28,7.48-3.64,10.14-4.7c0.18-1.74-3.53-2.69-4.92-3.97c2.68-1.71,11.38,2.18,14.54-3.16
				c3.41-8.09-13.29-2.15-14.47-6.68c0.37-0.81,0.66-1.76-0.44-2.2c-6.94-1.88-12.48,5.08-19.39,5.44
				c-0.67-0.87,0.34-2.24,0.29-3.31c0.07-2.42-4.11-0.44-3.6-3.31c0.07-0.73,0.29-1.54,0.51-2.42c-1.01-2.9-7.8,3.6-8.82,0.74
				c1.11-2.89-0.21-7.53-3.31-3.6c-4.36,4.06-11.32,8.8-17.55,8.08c-19.08-4,0.03-4.92-6.24-10.8c-4.2-0.98-8.94,0.49-13-0.81
				c-6.57-2.06-11.33-15.95-8.45-21.45c3.1,1.93,0.16,7.78,2.13,10.65c4.79,10.8,10.36,11.02,11.09-1.54
				c1.7,3.62,4.67,11.89,11.83,10.87c5.79,0.69-4.91-10.63,1.69-7.42c1.37,0.2,0.73-2.12,1.84-2.57c0.88-0.59,1.91-0.07,2.2,0.88
				c1.08,5.39,6.22,9.41,10.87,11.68c3.99,0.36,1.24-7.39,4.63-7.79c1.63,0-0.27-3.34,0.81-2.2c1.63,1.75,3,3.99,5.29,4.77
				c2.44-1.05,4.6-1.93,7.49-2.42c18.86-7.11,3.68-4.96-0.3-13.3c-4.62-3.06-12.12-1.28-16.23-5.88c-0.21-1.46,3.2-1.88,2.57-4.63
				c-2.76-3.54-9.16-2.27-12.12,0.37c-1.62,1.75-12.17,3.59-5.44-0.74c1.44-1.07,5.75-0.71,5-3.23c-0.39-1.08-2.27-2.36-1.54-3.38
				c3.36-0.54,11.01-2.2,10.21-6.61c-4.08-1.56-8.89-1.77-13-2.42c-1.18-0.15-3.16-0.59-2.5-2.35c2.52-6.79,3.99-5.57,8.67-2.28
				c0.88,0.51,2.13,1.1,2.64-0.29c0.37-1.03,1.47-4.77,3.01-4.33c0.62,0.14,1.48,0.58,1.69-0.29c0.29-2.13,2.28-2.2,3.89-2.35
				c7.48-2.41-1.72-7.97-6.02-6.9c-4.96-0.65-1.83-4.27,1.03-5.36c0.8-0.59,0.13-1.52,0.51-2.2c1.17-1.69,3.23-2.79,4.85-3.89
				c6.3-5.58-6.97-4.97-10.06-4.85c1.08-3.82,8.56-8.41,6.32-13.15c-1.25-1.47-2.42-1.18-3.75-0.15
				c-3.37,1.53-6.93,10.45-10.58,8.01c-0.73-1.03-3.23-5-4.77-3.97c-4.09,3.46-6.24,9.83-7.71,14.54
				c-1.98,5.67-7.48,9.72-11.97,13.52c-1.88,1.05-5.48,5.15-6.91,2.64c-1.15-5.97,0.3-12.23-1.03-18.07
				c-2.44-3.45-2.34-11.19,1.47-13.96c11.21-4.5,2.35,2.46,7.2,5.44c3.44,0.65,4.67-4.74,7.71-5.22c2.06,1.99,6.13,1.88,8.15-0.15
				c-0.54-3.89-6.02-8.41-9.84-10.06c-4.02,0.32-9.49-3.37-2.06-3.45c2.53,0.66,23.34,3.59,17.04-2.57
				c-1.62-0.22-3.01-0.81-4.19-1.98c-1.4-1.4-2.72-3.16-4.85-2.06c-4.15-1.98,11.51-8.39,8.59-11.31
				c-5.69-0.35-12.25,3.74-16.75,7.34c-0.51,0.59-0.66,0.52-0.51-0.29c0.17-1.9,1.72-5.85-0.88-6.39
				c-5.23,3.36-6.52,11.31-8.81,15.79c-2.17-1.05-3.52,2.74-5.07,3.09c-2.96-14.46,10.69-24.23,15.94-35.85
				c-1.91-5.08-9.52,0.61-10.36,4.11c-4.88,10.06-5.3-4.85-4.7-8.89c0.32-5.09-2.8-9.29-6.47-12.27c-0.9,9.82,0.02,21.72-1.17,30.41
				c-15.18-19.45-19.35-12.38-5.81,4.11c6.53,2.64,6.43,35.08,1.84,19.02c-0.22-1.18-1.03-1.32-1.83-1.69
				c-1.7-2.64-1.13-6.01-1.54-8.96c-0.08-7.67-8.05-11.6-7.27-1.4c-3.17,3.47-8.33-6.43-12.56-4.85c-4.48,1.17,0.22,8.01,1.62,9.77
				c2.04,2.93,5.16,5.7,6.39,9.11c0.95,3.38-5.73,1.76-5.14,6.1c0.77,5.82,7.23,4.42,9.92,0.88c2.15,0.94,0.94,6.09,1.32,8.67
				c-1.04,3.24-5.94-1.88-8.23-2.5c-9.47-3.79-0.64,9.67,3.6,11.75c0.28,0.42,2,1.58,0.73,1.69c-2.54-0.88-5.37-0.37-6.17,2.72
				c-1.03,2.13-3.09,1.1-4.63,0.29c-4.33-2.42-8.45-5.43-12.41-7.86c-2.94-1.94-10.61-6.46-9.18,0.81c0.87,5.18,7.28,6.91,9.26,9.25
				c-2.35,0.22-8.08,0.59-9.11,3.53c-0.56,2.88,3.45,4.55,5.8,3.23c0.59-0.29,1.25-0.37,1.4,0.51c0.29,2.13,2.35,2.28,4.04,2.42
				c1.6,0.21-0.8,1.01-1.25,1.47c-1.65,2.13,6.44,5.31,5.51,6.61c-3.85,1.26-15.97,0.59-12.12,7.42c3.62,5.47,8.69-0.93,13.59,1.4
				c1.94,0.38,1.52,2.51,3.01,3.09c1.81,0.63,4.34,0.81,5.36-0.95c0.37-1.1,1.25-1.76,2.57-1.84c9.74-1.22,0.17,2.65-1.76,6.39
				c0.43,4.58,7.83,2.56,9.92-0.51c0.29-0.37,0.44-0.29,0.59,0.15c0.5,2.47-1.98,5.8,0.37,7.35c3.05,0.65,4.59-0.3,5.66-2.86
				c1.88,5.56,4.28-2.53,5.58-4.48c0-0.07,0.15-0.07,0.22,0c0.93,2.25,4.52,8.85,2.64,10.58c-9.63,1.92-21.37,4.31-30.41-1.25
				c-3.21-1.61-12.63-9.26-15.06-3.75c-0.29,2.2,6.76,5.88,8.37,6.83c-6.12,0.51-19.2-5.87-24.39-10.94
				c-3.9-4.46-12.43-2.43-7.27,3.67c0.22,0.29,0.22,0.59-0.15,0.73c-4.99,2.33-27.62,0.56-13.3,8.89c5.8,3.41,15.39,1.97,20.27,1.61
				c-2.67,1.82-6.91,3.4-8.01,6.76c-0.59,1.76,0.59,3.23,2.2,3.6c6.42,1.28,9.8-6.13,15.06-8.23c10.43-0.24-9.99,4.72-4.48,8.59
				c3.02,1.18,2.53,2.7,2.79,5.36c0.4,1.28,2.79,2.57,3.82,1.25c2.15-4.31,8.76-3.15,12.19-5.95c1.5-0.99,7.49-6.84,5.51-2.5
				c-2.3,4.67-10.32,5.49-10.87,10.65c2.38,4.33,7.59,0.9,10.06-1.62c2.06-0.81-1.67,5.41,0.96,5.8c3.15,0.64,5.73-8.64,8.52-6.91
				c1.83,2.66,2.22,1.75,3.97-0.22c2.04-2.05,5.13-0.78,7.64-1.47c6.81-1.22,11.81-6.97,12.49-12.93
				c4.79,15.11-20.35,22.14-30.04,29.16c-6.89-2.67-29.82-17.37-15.65,0.66c0,0.07,0,0.07-0.07,0.15h-0.07c0,0.07,0,0.07,0,0.07
				c-2.93-3.45-6-1.95-9.84-3.23c-3.32-1.43-11.29-6.59-8.74,0.81c-0.89,3.16-5.9,1.17-8.45,1.1c-2.92-1.69-6.5-1.55-8.37,1.62
				c-2.16,4.62,0.93,5.57,4.92,4.04c1.31,1.31-4.52,4.49-3.01,6.17c2.17,1.25,7.7-1.61,8.15,1.54c-3.07,7.33,5.29,0.6,6.39,4.26
				c-1.57,7.39,1.8,3.17,6.02,2.64c3.88,0.35,7.12,6.63,3.16,9.11c-1.03,0.73-1.54,1.1-2.13-0.37c-1.78-3.31-9.99-4.37-11.83-1.62
				c-0.6,1.85-3.6-0.46-4.99,0.37c-1.93,1.36,1.48,3.57,2.57,4.41c3.16,2.28,2.35,5.95,1.4,9.26c-0.66,1.98-2.5,0.66-3.38-0.07
				c-3.69-2.69-7.77-8.3-12.63-6.61c-0.95,2.31,2.29,4.43,1.69,6.76c0,0.15-0.15,0.22-0.22,0.22c-2.87,1.69-23-6.12-16.82,1.32
				c3.65,2.89,7.73,4.82,12.34,5.14c1.48,0.67-1.08,2.58-1.47,3.67c-0.63,4.69,7.27,1.62,9.7,3.31c1.43,1.42,0.07,3.69,2.79,3.75
				c4.57,0.19,7.3,0.38,6.83,5.8c0,0.22,0.22,0.37,0.44,0.22c2.2-1.04,3.87-6.03,5.8-5.22c0.15,0.81,0.15,2.57,0.96,3.01
				c0.45,0.22,1.16-0.26,1.62-0.15c3.12,2.3,3.11,7.29,6.83,8.96c1.17,0.66,2.13,1.69,2.35,3.09c0.29,2.57,1.91,2.42,3.82,2.94
				c2.06,0.51,3.6,2.5,5,4.19c2.93,1.68,5.7-3.48,8.08-4.85c0.07,0,0.07,0,0.15,0c0,0.07,0,0.07,0,0.15
				c-7.3,9.22-29.1,14.98-39.15,9.99c-1.76-1.03-5.8-4.04-7.93-3.31c-1.62,0.51-0.73,3.53-0.44,4.63c0.98,4.34-6.13,2.48-8.37,1.98
				c-3.16-2.14-5.73-1.9-8.52,1.18c-0.95,1.03,0.37,1.91,1.03,2.35c2.6,2.04,7.4,3.45,7.35,7.35c-0.22,1.25-1.1,3.6,1.03,3.53
				c1.95-0.02,6.52-1.27,6.02,2.28c-0.44,1.47-0.59,2.94,0.81,4.04c3.57,3.04,8.13-1.29,10.87-1.98c-3.04,2.62-2.04,8.31,2.65,7.2
				c1.86-0.28,5.64-1.99,6.39,0.44c-0.37,2.86-9.48,4.63-11.9,4.92c-7.39,2.11-10.44-3.99-16.31-4.63c-3.1,0.11,0.03,3.39-1.84,4.19
				c-6.76-0.28-22.12-1.75-6.54,5c1.62,0.73,4.04,1.98,3.6,4.19c-0.58,5.63,6.42,4.89,9.48,2.86c4.34,1.01-2.16,9.16,7.05,6.17
				c2.92-0.4-1.7,4.98,1.1,4.85c1.61-0.09,4.9-1.61,5.22,0.88c0.22,2.35,3.67-0.07,4.48-0.73c4.93-4.61,11.6-13.84,18.22-6.32
				c0.62,3.79-6.51,0.28-8.45,1.84c-3.6,1.69,2.5,8.52,3.08,10.5c0.15,0.44-0.22,0.88-0.59,0.81c-3.08-0.07-5.8,0.95-8.08,3.16
				c-1.69,1.36-2.6,1.85-5.36,2.2c-2.34,0.77-4.09,3.04-6.76,2.86c-7.46-0.59-14.12,3.23-21.67,2.43c-3.6-0.32-3.14,3.83-4.33,6.02
				c-2.95,2.77-8.67,1.82-12.56,2.5c-1.29-0.05-4.87-0.6-4.41,1.47c3.36,4.53,9.82,7.09,15.5,7.13c1.43,1.34-2.89,4.27-3.53,5.73
				c0.02,2.23,5.25,0.14,6.54,1.69c0.85,0.38-0.07,2.59-0.07,3.23c3.44,2.17,9.98-2.58,14.4-0.29c0.88,0.29,1.18,0.95,0.88,1.91
				c-1.62,4.99,2.06,4.19,3.89,1.69c1.06-0.72,2.06-4.85,3.45-4.77c-0.54,6.69,2.26,6.88,7.86,7.05c6.08,1.24,7.67-5.2,9.4-9.7
				c0.37-0.66,2.74,7.75,2.94,7.79c1.94-0.92,3.91-6.89,6.39-7.05c0.34,1.78-0.53,7.34,2.57,5.8c2.34-1.61,1.59-7.54,4.85-7.93
				c0.81,0.44,0.29,1.4,0,1.98c0.68,2.82,6.52-1.06,8.74,0.15c1.13,4.66-10.07,8.41-13.59,9.4c-2.2,0.59-4.63,0.22-6.83,1.54
				c-1.4,1.87-3.13,2.73-5.66,2.86c-3.07,0.73-9.09-0.92-11.46,1.62c0.73,3.45,4.85,5.44,7.79,6.02c2.42,0.44,4.92-0.44,7.27,0.59
				c1.7,1.65-2.29,2.96-3.53,3.23c-21.41,5.2-45.87-0.22-66.48,7.12c-1.43,1.6-8.14-1.77-7.93,1.69c0.88,2.64,5.07,4.33,7.42,4.77
				c1.62,0.37,7.22-0.02,5.22,3.09c-3.65,1.39-8.4,4.91-9.84,7.86c2.94,0.04,8.38-2.63,10.36,0.51c0.6,3.57,6.38-1.06,6.76,2.87
				c1.54,3.21,5.72,0.03,7.2-1.91c1.28-1.72,4.97-3,2.72,0.44c-4.5,4.62-4.41,7.89,2.87,5.51c1.54-0.66,2.64-4.11,4.77-1.84
				c3.99,11.6,8.87,2.45,15.28-0.73c-3.32,13.53,1.44,11.77,10.21,4.48c0.3-0.38,1.67-1.1,1.1-0.07c-0.96,1.84-4.48,8.45,1.4,6.46
				c2.74-1.67,5.95,3.22,7.27,1.84c0.15-1.03,0.44-1.91,1.62-2.2c3.69-1.28,2.65,2.76,4.7,3.89c3.05,0.89,6.19-0.68,9.18,0.29
				c-4.98,7.42-42.72,17.65-50.83,10.14c-6.46-5-11.64-0.9-2.94,3.23c-9.63,0.83-25.77-2.48-37.02-5.22
				c-1.69,0.6,1.37,3.02,1.98,3.6c5.36,4.63,12.26,6.51,19.03,7.49c-3.56,0.37-7.12-0.15-10.5,1.03c-7.8,8.28,18.97,2.66,8.37,9.47
				c-0.66,0.51-2.35,2.65-0.66,3.01c2.36,1.03,5.54-3.25,7.27-1.4c-0.13,7.4,11.4,1.63,15.57,0.88c4.11-0.85-10.25,6.31,1.69,4.7
				c2.6-0.29,2.83,2.35,3.08,4.33c2.32,1.96,5.65-4.56,7.93-6.46l0.07,0.07c0,0,0,0,0,0.07c-10.79,16.19-0.28,13.32,9.77,5.58
				c-1.06,13.37-17.84,13.43-27.77,17.41c-8.21,2.75-13.94-2.97-22.26-3.53c-4.26-0.75-11-0.65-5.8,4.55
				c0.51,0.59,0.44,0.88-0.37,0.81c-4.39,0.34-17.93-7.18-19.03-1.18c12.51,13.93,0.16,3.17-9.18,4.19
				c-7.81-0.51-10.48,2.81-1.76,6.1c5.19,2.58,11.21,2.06,15.5,2.72c-3.28,1.87-13.93,12.74-3.97,11.02
				c2.56-0.21,1.56,3.74,2.06,5.36c0.44,2.42,2.35,2.13,4.11,2.42c2.78,0.33,4.51,2.99,6.9,4.11c2.21,0.34,5.92-2.54,7.05-4.63
				c1.85-0.42,3.91,2.98,5,4.41c0.59,0.96,1.4,3.01,0.66,4.04c-0.5,0.69-2.06,0.31-1.84,1.54c0.1,0.39,1.13,1.81,0.22,1.98
				c-2.79,0.44-5.57-1.3-8.37-0.59c-2.13,3.4-7.06,2.52-10.72,2.86c-1.4,0.07-6.17,0.29-4.19,3.16c4.72,5.97,13,2.41,19.47,2.06
				c-1.65,2.4-11.48,4.24-10.72,9.33c1.61,4.34,6.62-0.49,9.62,0l0.07,0.15c0,0,0,0-0.07,0.07c-1.21,0.36-3.74,1.69-1.98,3.09
				c2.07,1.27,5.02-0.47,7.05-0.07c-0.09,0.79-2.78,1.82-2.64,3.09c-0.07,0.15,0,0.29,0.15,0.29c3.82,1.64,8.25-4.17,11.53-2.5
				c-0.01,2.14-3.33,2.07-3.16,3.97c1.85,4.3,12.27-4.85,10.14,1.69c-0.24,1.76,3.49-0.3,4.11-0.22c0.57,1.76-2.84,3.16-4.63,3.3
				c-14.16,1.69-31.64-0.83-45.91,1.47c-0.79,0.65,0.34,1.58,1.03,1.76c2.98,0.37,6,1.64,7.49,4.48
				c-3.38,5.23-14.37-0.07-18.36,5.73c-0.73,1.62,1.32,2.94,2.57,3.45c7.19,3.46,15.76-2.7,22.11-2.43
				c-1.47,2.97-11.74,11.04-4.19,11.83c3.1,0.61,10.1-5.92,10.73-1.1c0.67,2.83-0.33,7.22,2.5,8.67c4.55-0.74,8.9-4.28,11.46-7.49
				c3.85,2.55-1.15,8.17-0.81,11.75c7.49-0.23,13.76-12.67,20.57-15.57c-1.77,3.94-7.48,7.89-4.26,12.63
				c2.7,1.31,6.92-6.57,8.74-6.17c-0.53,2.88-0.04,6.8-3.45,7.86c-8.33,2.12-18.04,4.8-26.59,3.09c-3.84-1.92-8.6-3.8-12.85-2.87
				c-1.31,1.13,1.17,2.66,2.28,3.01c0.51,0.29,0.44,0.44-0.07,0.37c-2.94-0.15-5.88-0.37-8.74-0.51c-0.88,0.14-3.55-0.53-3.16,0.88
				c8.68,9.12-9.52,0.83-13,6.47c-1.18,1.47,2.5,2.5,3.38,2.57c17.03,0.89-9.34,7.43-10.8,12.41v0.37
				c5.94,3.89,15.57-5.07,20.93-2.79c-2.13,2.31-7.08,3.72-5.95,7.86c1.58,2.48,6.37-1.55,7.57,0.37c-0.78,1.41-3.96,4.31-2.2,5.66
				c4.51,0.07,7.77-3.99,11.53-5.88c1.09,1.38-1.02,4.11-0.51,5.88c1.21,0.57,3.39-3.35,4.41-2.28c0,0-1.03,3.45-1.03,3.45
				c0.85,1.64,7.19-7.25,8.96-4.48c0.74,2.45-2.44,6.33,2.72,4.92c3.93-1,6.93-4.41,10.87-4.99c1.65,2.8,5.19,0.96,7.93,0.88
				c-6.07,4.54-15.37,3.99-22.48,7.35c-1.47,0.66-3.45,1.91-2.42,3.89c3.79,3.86,10.31-1.46,14.91-0.95
				c-2.16,4.2-6.37,6.56-8.89,10.58c2,2.45,10.13-1.51,11.97-1.98c2.6-0.63,6.3-4.47,7.64-2.13c-0.58,2.7-5.48,6.27-4.19,9.62
				c1.4,1.03,5.58-1.54,5.95,1.1c0.46,7.22,6.06-2.57,8.37-1.84c-0.07,1.84-1.1,4.55,1.62,5.14c6.23,0.92,11.19-4.65,14.62-9.26
				c1.35-0.27-1.7,7.15-0.59,9.04c2.93,5.3,9.66-4.7,12.49-7.05c3.24-4.03,2.46,2.32,3.01,4.77c0.72,7.06,5.33,4.27,8.08,0.44
				c2.4-2.76,3.83,4.4,5.73,2.79c0.74-2.08,1.49-6.16,4.55-5.07c1.98,0.15,2.86-3.82,3.31-5.36c0.75-2.91,1.85-0.91,3.16,0.22
				c2.98,2.56,7.35,1.86,8.89-2.06c1.64-4.25,10.18-18.89,6.83-5.51c-0.07,1.51,1.51,0.79,2.5,0.22c5.13-2.42,6.59-6.02,7.86-10.21
				c2.71,9.43,4.8-3.35,4.33-6.9c0.1-4.11,2.01,0.84,3.6,1.47c1.66,1.65,5.35,0.01,5.88,2.79c0.62,14.79-2.43,28.07-9.11,41.06
				h41.21c1.99-1.83,0.56-4.76-0.15-6.9c-2.14-6.75-6.39-18.5-2.13-25.05c3.58,1.18,5.4,9.5,9.33,9.7c0.97-1.36-0.99-3.42-0.66-4.99
				c4.4,2.04,3.7,11.77,9.99,11.31c3.49-0.98,6.51,2.77,8.96,1.98c0.34-0.42,0.83-1.7,1.54-1.47c2.77,0.64,5.18,6.53,8.15,4.63
				c0.79-1.66-0.5-3.69-0.07-5.44c1.95,0.87,4.38,4.17,7.42,3.38c0.07,0,0.22-0.15,0.22-0.22c3.67-3.34,11.03-0.26,15.06,0.81
				c0.54,0.19,1.83,0.66,1.62-0.37c-0.37-1.4-1.18-3.82,0.51-4.77c3.95-1.62-3.48-4.83-1.47-6.61c5.36,0.36,17.21,10.73,10.14-1.1
				c1.72,1.7,3.97,2.42,6.32,1.62c1.81,0.17,2.61,5.83,4.7,7.2c0.81,0.88,1.61,1.03,2.5,0.37c4.72-5.21,6.63,1.29,9.55,4.48
				c1.87-4.56,2.03-10.27,6.54-3.3c2.6,3.23,8.47-2.91,6.68-5.58c-0.48-1.11-1.73-2.13-1.76-3.23c1.38-1.58-0.83-4.21-1.39-5.88
				v-0.29c5.72,2.42,18.8,21.86,19.76,5.29c-0.22-0.59-0.07-0.73,0.44-0.44c4.13,2.97,8.07,6.32,12.93,7.35
				c5.5,0.33-1.12-5.1-1.47-7.13c4.48-4.08,12.3,0.03,2.94-7.2c-1.19-0.73-5.05-4.61-1.39-3.6c6.3,1.81,11.79,7.88,18.22,8.01
				c2.86-1.87-2.57-4.57-4.19-5.36c-0.46-0.18-1.23-0.85-0.29-0.96c5.2-0.58,14.03,0.03,16.45-5.22c-14.97-2.02-33.06-2-46.06-10.65
				c-0.51-0.52-0.66-1.03-0.44-1.54c1.68-1.18,4.04,0.66,6.02,0.95c5.54,1.5,4.76-2.04,1.18-4.33c1.75-2.44,23.11,2.79,7.79-6.24
				c2.73-1.98,11.81,1.32,14.91-2.13c-0.69-3.45-7-3.3-9.7-4.41c0-0.07-0.07-0.07-0.07-0.07c0-0.02,0-0.17,0-0.15
				c3.04-0.35,14.13-0.76,8.23-4.92c-0.61-0.66-3.54-1.5-2.72-2.42c5.3-0.84,12.9,2.2,17.12,0.07c-2.65-4.2-8.38-3.01-11.46-5.95
				c-0.95-1.54,1.54-1.69,2.35-1.62c3.23,0.29,6.1,0.29,8.52,0.07c12.72-3.67-20.22-3.92-18.88-7.05
				c6.62-4.47,22.15-3.3,25.05-11.09c-8.02-1.81-16.5,2.76-24.9,4.04c-1.32-1.11,4.61-4.79,5.8-6.54
				c9.95-12.79-25.18,10.61-30.63,6.61c-16.61-2.11-31.74-11.05-46.57-18.8c-4.62-3.11-9.26-4.41-10.5-9.77
				c2.15-0.86,5.31,6.4,7.71,5.58c2.81-1.1,4.97,5.9,5.14-1.32c3.37-0.46,6.49,5.42,9.77,7.86c1.11-1.88-2.22-7.38-0.66-9.84
				c6.03-0.29,12.24,8.87,16.97,8.16c0.54-2.68-1.8-6.79-0.37-8.52c2.51,2.63,9.81,4.74,10.58-0.22c0.07-1.25,0.73-2.35,2.13-1.98
				c2.54,1.41,9.36,10.77,12.63,8.96c1.68-4.35-8.73-9.5-5.73-12.27c2.57,1.23,4.35-2.91,6.91-3.16c5.03-1.2,10.96,2.27,14.18-2.94
				c2.78-0.58,23.55,6.36,15.5-1.62c-3.75-3.41-13.06-4.38-14.62-7.64c7.56,1.15,21.23,6.53,26.81-0.51
				c-2.96-4.42-11.18-3.12-15.65-3.9c-1.32-0.07-1.32-0.22,0-0.59c2.34-0.69,8.33-1.92,6.83-5.14c-4.78-3.44-37.69,6.21-29.68-3.82
				c2.65-5.44-6.24-2.06-8.23-1.4c-6.02,7.79-72.85-13.35-60.23-18.95c1.46,0.27,4.24,1.46,4.48-0.81c0.3-0.96,1.66-0.64,2.42-0.44
				c10.25,5.1,22.32,5.89,33.79,6.1c2.87-0.82-1.13-4.21-1.98-5.58c0,0,0,0,0-0.07l0.07-0.07c2.63,0.94,8.19,9.6,10.21,5.8
				c0.37-0.87-0.21-2.67,0.73-2.87c2.58,0.6,4.63,3.05,7.27,3.53c3.58-0.77,6.73-4.34,10.65-5.58c3.57-1.88-3.63-4.05-3.01-5.58
				c3.05,0.03,5.86,2.69,8.89,2.13c3.74-7.49,16.61-4.16,22.18-9.99c0.15-0.37,0.51-0.51,0.81-0.37c2.04,1.19,6.14,0.19,6.76-1.98
				c-4.66-2.39-8.03-0.93-6.76-7.71C1392.13,1379.35,1386.65,1380.83,1393.29,1377.91z M1353.78,1347.27
				c3.82,1.84,3.16,3.33-0.66,1.4C1349.37,1346.84,1349.94,1345.3,1353.78,1347.27z M1350.76,1303.5c2.6,0.1,2.61,1.44-0.07,1.25
				C1348.11,1304.7,1348.16,1303.34,1350.76,1303.5z M1307.57,1200.36c4.28-2.13,3.05,6.82-0.07,0.59
				C1307.35,1200.8,1307.35,1200.51,1307.57,1200.36z M1201.8,1014.89c-0.61,0.73-1.69-0.46-2.2-0.95
				c-1.99-2.78-4.98-4.71-7.93-5.95C1178.58,993.24,1204.64,1005.73,1201.8,1014.89z M1062.23,1417.06
				c-0.66,1.37-3.82,2.35-3.75,0.59C1059.15,1416.67,1063.49,1414.52,1062.23,1417.06z M1108.88,1506.23
				c-1.73-0.46,0.11-1.95,0.88-2.5C1111.89,1502.41,1112.03,1506.97,1108.88,1506.23z M1121.73,1436.01
				c-6.83,5.23-14.61,4.23-22.4,4.55c-0.85,0.3,0.78,2.05-0.59,1.98c-3.81-0.41-6.7-3.93-10.58-3.53c-1.26,1.93-3.58,1.37-5.44,0.07
				c-0.84-3.06,4.21-5.68,5.73-8.3c0.43-0.42,7.2,8.04,7.49,8.08c2.9-1.94,4.85-12.23,8.37-4.41c2.73,2.37,2.15-5.71,5.07,2.5
				c0.76,1.94,3.64,3.47,3.67,0.37C1114.86,1435.29,1119.74,1435.42,1121.73,1436.01z M1128.56,1433.44c-0.88,0.88-3.6,1.54-4.7,1.4
				C1122.78,1433.26,1128.97,1431.38,1128.56,1433.44z M1170.14,1220.86c-4.13,2.96-9.38,6.95-13.88,6.17
				c-0.15-0.22-0.15-0.52,0.07-0.74C1160.23,1224.11,1166.1,1220.53,1170.14,1220.86z M1184.83,1113.69
				c-7.47,4.03-29.91,10.74-30.26-3.08c-0.22-1.62,1.17-2.13,2.5-1.76c4.36,2.86,9.3,9.32,14.69,3.75c1.03-1.1,3.23-3.3,4.92-2.72
				c1.17,0.35,0.15,1.92,0,2.64c-0.27,2.06,3.3,1.2,4.19,0.44c0.73-0.44,1.18-1.25,1.76-1.76
				C1184.97,1109.21,1187.4,1111.7,1184.83,1113.69z M1308.82,1296c-6.35-1.34,10.15-3.19,9.99-0.37
				C1315.61,1296.5,1312.6,1296.02,1308.82,1296z"/>
			<path class="st3" d="M1154.27,1408.24c4.78-1.75,10.82-2.61,14.76-5.84v-0.19c-12.45-0.62-26.77,4.09-37.98,0.39
				c0.44-1.62,3.08-0.45,3.16-2.47c-10.76-3.49-24.83-0.62-35.77-6.03c-1.76-0.84-2.2-2.79,0.29-3.05c2.41-0.05,5.32-0.18,6.24-2.27
				c1.25-0.58,3.97,1.23,4.41-0.65c0.14-0.37,0.21-0.82,0.66-0.91c5.06,1.94,8.37,4.41,14.84,3.57c-1.73-1.97-5.01-3.7-7.05-5.71
				c-0.11-0.49,15.92-0.65,15.28-1.23c0.01-0.23-11.87-4.84-10.65-4.99c8.33,1.52,13.1-4.44,19.17-7.72
				c8.01-4.28,5.92-9.26-3.45-6.29c-3.39,0.19-13.53,5.98-14.54,1.36c-0.05-0.96,1.21-2.8,0.22-3.83
				c-4.67-0.11-9.59,2.48-13.88,3.24c-10.91,1.1-23.98-3.19-32.91-8.3c-0.96-1.31,1.59-1.56,2.57-1.69c3.46-0.18,7.12,0.46,9.4-2.27
				c2.74-0.1,4.33,3.02,6.98,3.44c3.86,0.75,7.5-0.21,11.61-1.1c4.63-1.27-3.07-4.16-2.28-5.45c3.35,0.13,10.94,5.6,8.3-0.52
				c-0.29-1.04,1.25-1.3,1.98-1.36c0.88,0,2.65-0.06,3.16-0.78c0.36-1.74-0.94-3.83,1.69-4.73c0.89-1.47-1.79-2.52-2.64-3.63
				c-1.17-3.43,5.24-5.35,6.24-8.56c0.15-0.32-0.07-0.71-0.44-0.84c-11.34,0.84-22.12,7.02-33.86,6.29
				c-11.51-1.42-16.22-12.34,0-6.55c0.88,0.26,3.82,0.84,4.19-0.52c0.06-2.61-5.55-5.38-6.98-7.39c2.28-1.59,7.85,0.94,10.43-1.43
				c1.54-1.77-1.95-2.48-3.45-2.46c-0.88-0.06-0.88-0.26-0.15-0.65c2.79-1.23,5.95-2.4,6.54-5.58c-15.64,2.98-39.28,5.54-54.73-2.27
				c4.58-0.64,6.67-0.37,4.85-5.26c-0.21-0.38,0.18-0.82,0.59-0.58c2.79,1.97,5.8,4.43,9.48,4.67c1.08-0.2,0.92-1.73,2.42-1.43
				c2.09,0.1,4.66,1.07,5.36-1.3c1.92-1.66,5.13-0.62,7.27-1.62c1.89-3.15-9.54-8.02-9.33-9.73c34.93,6.35,6.47-4.82,28.5-6.62
				c0.95-0.06,3.89-0.78,2.57-2.07c-0.88-0.91-2.86-1.23-4.19-1.62c1.24-1.14,7.52,1,8.37-1.75c-0.07-1.43,0.37-1.88,1.84-2.08
				c1.03-3.92-5.81-4.64-9.55-3.57v-0.13c-0.07-0.06,0-0.13,0.07-0.19c6.18-3.31-0.99-3.45-4.63-2.72c-1.97-0.4,1.46-3.47-0.44-3.63
				c-0.07,0.06-0.15,0.06-0.22,0.06c-5.8,2.7-12.82,2.02-18.88,4.15c-0.81,0.19-0.81,0.06-0.22-0.39c2.32-2.33,8.79-5.31,7.79-8.11
				c-1.9,0.12-8.71,4.49-8.67,1.43c1.03-1.23,2.87-2.85,2.79-4.41c-0.07-1.49-2.42-0.26-3.01,0.19c-2.42,1.95-4.99,3.57-7.71,4.99
				c-10.24,4.55-33.93,2.35-39.15-7.59c-0.08-2.01-1.65-3.59-2.94-5.26c1.47-2.28,3.48,2.07,4.63,2.79
				c5.07,1.98,9.64,0.2,15.57,2.14c3.59,1.2,2.54-3.34,2.65-5.25c3.35,1.09,6.64,3.96,10.43,4.8c3.01,0.59,2.76-2.79,0.88-3.89
				c4.29-2.33,11.7,0.96,17.04,0.13c5.83-1.02,7.11-1.83,2.64-5.84c-1.21-2.69,6.13-1.77,6.9-4.41c0.96-1.69-2.64-1.82-3.53-1.95
				c5.08-3.9,12.63-6.6,17.48-11.41c-4.93-1.18-9.81-1.13-13.15-4.41c-2.16-0.29-4.44,0.65-6.61,0.78c-1.41-0.65,3.97-3.9,0.51-4.99
				c-1.69-0.52-4.33,0.58-5.8,1.43c-5.19,2.88-12,3.35-18.14,2.79c-0.66-0.13-0.73-0.39-0.15-0.65c2.13-1.1,4.26-1.62,3.97-4.48
				c-0.36-1.13,0.22-5.54-2.28-3.96c-7.37,4.63-16.07,6.66-24.83,4.02c-10.76-2.9-25.67-7.6-32.4-15.37
				c2.3,0.18,4.73,2.86,6.91,2.07c0.69-0.58-0.14-4.57,1.25-3.05c0.66,1.04,2.2,3.7,3.97,3.24c3.08-1.03,6.82,3.22,9.62,3.11
				c1.07-1.56-0.54-5.39,1.4-6.16c3.86,3.47,13.46,9.35,12.56,0.06c0.7-1.18,1.45,4.23,2.5,5.06c2.03,0.44,4.36,0.99,6.46,2.01
				c3.53,1.36,4.33-4.61,7.93-3.89c1.5-1.5-1.02-4.29-0.29-6.23c0.07-0.06,0.15-0.13,0.22-0.19c4.45,0.82,13.23,4.66,6.76-2.66
				c-0.33-0.3,0.05-0.95,0.51-0.91c8.49,0.42-2.63-4.05,0.29-6.75c3.83-0.1,5.52,5.16,9.77,4.35c2.74-0.33,7.07,0.1,3.67-3.05
				c-1.91-2.33,0.07-3.7,2.57-3.7c4.48-0.06,8.23-3.5,11.46-5.97c-4.74-1.43-14.27,1.01-16.82-1.04c0.63-1.25,3.75-3.45,2.13-4.35
				c-2.9,0.18-20.74,12.49-13.22,3.11c0.43-0.39-0.32-0.56-0.59-0.39c-2.75,1.14-4.98,0.41-2.79-2.21c0.53-0.94,3.61-2.83,2.13-3.7
				c-8.43,2.04-13.39,12.2-23.07,9.92c-7.08-1.56-32.87-8.2-29.38-16.21c2.95-0.22,6.17,0.45,7.42,3.05
				c3.52,3.58,8.71,2.91,6.1-2.72c3.01,0.92,5.26,5.61,9.11,6.35c1.6,0.59,5.56,0.86,4.92-1.82c-2.68-18.53,10.64,3.68,18.44-1.75
				c0.1-2.8-9.8-6.99-8.59-9.6c4.14-0.97,4.08,3.44,6.9,3.63c1.03-0.26,1.69-0.13,2.35,0.58c1.15,1.54,8.5,2.83,8.74,0.97
				c0,0-3.82-2.79-3.82-2.79c0.11-2.89,7.48-3.22,10.14-4.15c0.18-1.53-3.53-2.37-4.92-3.5c2.68-1.51,11.38,1.92,14.54-2.79
				c3.41-7.15-13.29-1.9-14.47-5.9c0.37-0.71,0.66-1.56-0.44-1.95c-6.94-1.66-12.48,4.49-19.39,4.8c-0.67-0.77,0.34-1.98,0.29-2.92
				c0.07-2.14-4.11-0.39-3.6-2.92c0.07-0.65,0.29-1.36,0.51-2.14c-1.01-2.56-7.8,3.18-8.82,0.65c1.11-2.55-0.21-6.65-3.31-3.18
				c-4.36,3.59-11.32,7.77-17.55,7.14c-19.08-3.53,0.03-4.35-6.24-9.54c-4.2-0.87-8.94,0.43-13-0.71
				c-6.57-1.82-11.33-14.08-8.45-18.94c3.1,1.7,0.16,6.87,2.13,9.4c4.79,9.54,10.36,9.73,11.09-1.36c1.7,3.2,4.67,10.5,11.83,9.6
				c5.79,0.61-4.91-9.39,1.69-6.55c1.37,0.18,0.73-1.87,1.84-2.27c0.88-0.52,1.91-0.07,2.2,0.78c1.08,4.76,6.22,8.31,10.87,10.31
				c3.99,0.32,1.24-6.52,4.63-6.88c1.63,0-0.27-2.95,0.81-1.95c1.63,1.55,3,3.53,5.29,4.22c2.44-0.92,4.6-1.7,7.49-2.14
				c18.86-6.27,3.68-4.38-0.3-11.74c-4.62-2.7-12.12-1.13-16.23-5.19c-0.21-1.28,3.2-1.66,2.57-4.09
				c-2.76-3.12-9.16-2.01-12.12,0.32c-1.62,1.55-12.17,3.17-5.44-0.65c1.44-0.94,5.75-0.63,5-2.85c-0.39-0.95-2.27-2.09-1.54-2.98
				c3.36-0.48,11.01-1.94,10.21-5.84c-4.08-1.38-8.89-1.56-13-2.14c-1.18-0.13-3.16-0.52-2.5-2.08c2.52-6,3.99-4.92,8.67-2.01
				c0.88,0.45,2.13,0.97,2.64-0.26c0.37-0.91,1.47-4.22,3.01-3.83c0.62,0.12,1.48,0.51,1.69-0.26c0.29-1.88,2.28-1.95,3.89-2.08
				c7.48-2.13-1.72-7.04-6.02-6.1c-4.96-0.58-1.83-3.77,1.03-4.74c0.8-0.52,0.13-1.34,0.51-1.95c1.17-1.49,3.23-2.46,4.85-3.44
				c6.3-4.92-6.97-4.39-10.06-4.28c1.08-3.37,8.56-7.43,6.32-11.61c-1.25-1.3-2.42-1.04-3.75-0.13c-3.37,1.35-6.93,9.23-10.58,7.07
				c-0.73-0.91-3.23-4.41-4.77-3.5c-4.09,3.05-6.24,8.68-7.71,12.84c-1.98,5.01-7.48,8.58-11.97,11.93
				c-1.88,0.93-5.48,4.55-6.91,2.34c-1.15-5.27,0.29-10.8-1.03-15.96c-2.44-3.05-2.34-9.88,1.47-12.32c11.21-3.98,2.35,2.18,7.2,4.8
				c3.44,0.57,4.67-4.19,7.71-4.61c2.06,1.76,6.13,1.66,8.15-0.13c-0.54-3.44-6.02-7.42-9.84-8.89c-4.02,0.28-9.49-2.98-2.06-3.05
				c2.52,0.58,23.34,3.17,17.04-2.27c-1.62-0.19-3.01-0.71-4.19-1.75c-1.4-1.23-2.72-2.79-4.85-1.82
				c-4.15-1.75,11.51-7.41,8.59-9.99c-5.69-0.31-12.25,3.3-16.75,6.48c-0.51,0.52-0.66,0.46-0.51-0.26
				c0.17-1.68,1.72-5.17-0.88-5.64c-5.23,2.97-6.52,9.99-8.81,13.95c-2.17-0.93-3.52,2.42-5.07,2.72
				c-2.96-12.77,10.69-21.4,15.94-31.65c-1.91-4.49-9.52,0.54-10.36,3.63c-4.88,8.89-5.3-4.28-4.7-7.85c0.32-4.5-2.8-8.2-6.47-10.83
				c-0.9,8.67,0.02,19.18-1.17,26.85c-15.18-17.17-19.35-10.93-5.81,3.63c6.53,2.33,6.43,30.97,1.84,16.8
				c-0.22-1.04-1.03-1.17-1.83-1.49c-1.7-2.34-1.13-5.31-1.54-7.91c-0.08-6.77-8.05-10.25-7.27-1.23
				c-3.17,3.07-8.33-5.68-12.56-4.28c-4.48,1.04,0.22,7.07,1.62,8.63c2.04,2.59,5.16,5.03,6.39,8.04c0.95,2.98-5.73,1.56-5.14,5.38
				c0.77,5.14,7.23,3.91,9.92,0.78c2.15,0.83,0.94,5.38,1.32,7.65c-1.04,2.86-5.94-1.66-8.23-2.2c-9.47-3.35-0.64,8.54,3.6,10.38
				c0.28,0.37,2,1.39,0.73,1.49c-2.54-0.78-5.37-0.33-6.17,2.4c-1.03,1.88-3.09,0.97-4.63,0.26c-4.33-2.14-8.45-4.79-12.41-6.94
				c-2.94-1.71-10.61-5.7-9.18,0.71c0.87,4.58,7.28,6.1,9.26,8.17c-2.35,0.2-8.08,0.52-9.11,3.11c-0.56,2.54,3.45,4.02,5.8,2.85
				c0.59-0.26,1.25-0.32,1.4,0.45c0.29,1.88,2.35,2.01,4.04,2.14c1.6,0.19-0.8,0.89-1.25,1.3c-1.65,1.88,6.44,4.69,5.51,5.84
				c-3.85,1.11-15.97,0.52-12.12,6.55c3.62,4.83,8.69-0.82,13.59,1.23c1.94,0.34,1.52,2.21,3.01,2.72c1.81,0.56,4.34,0.71,5.36-0.84
				c0.37-0.97,1.25-1.56,2.57-1.62c9.74-1.08,0.17,2.34-1.76,5.64c0.43,4.04,7.83,2.26,9.92-0.45c0.29-0.32,0.44-0.26,0.59,0.13
				c0.5,2.18-1.98,5.12,0.37,6.49c3.05,0.57,4.59-0.27,5.66-2.53c1.88,4.91,4.28-2.23,5.58-3.96c0-0.06,0.15-0.06,0.22,0
				c0.93,1.99,4.52,7.81,2.64,9.34c-9.63,1.7-21.37,3.81-30.41-1.1c-3.21-1.42-12.63-8.17-15.06-3.31
				c-0.29,1.95,6.76,5.19,8.37,6.03c-6.12,0.45-19.2-5.18-24.39-9.66c-3.9-3.94-12.43-2.14-7.27,3.24c0.22,0.26,0.22,0.52-0.15,0.65
				c-4.99,2.06-27.62,0.49-13.3,7.85c5.8,3.01,15.39,1.74,20.27,1.42c-2.67,1.61-6.91,3-8.01,5.97c-0.59,1.56,0.59,2.85,2.2,3.18
				c6.42,1.13,9.8-5.41,15.06-7.26c10.43-0.21-9.99,4.17-4.48,7.59c3.02,1.04,2.53,2.38,2.79,4.74c0.4,1.13,2.79,2.27,3.82,1.1
				c2.15-3.8,8.76-2.78,12.19-5.25c1.5-0.87,7.49-6.04,5.51-2.21c-2.3,4.12-10.32,4.84-10.87,9.4c2.38,3.82,7.59,0.79,10.06-1.43
				c2.06-0.71-1.67,4.78,0.96,5.12c3.15,0.57,5.73-7.63,8.52-6.1c1.83,2.35,2.22,1.55,3.97-0.19c2.04-1.81,5.13-0.69,7.64-1.3
				c6.81-1.07,11.81-6.16,12.49-11.42c4.79,13.34-20.35,19.55-30.04,25.75c-6.89-2.36-29.82-15.34-15.65,0.58
				c0,0.06,0,0.06-0.07,0.13h-0.07c0,0.06,0,0.06,0,0.06c-2.93-3.04-6-1.72-9.84-2.85c-3.32-1.26-11.29-5.82-8.74,0.71
				c-0.89,2.79-5.89,1.03-8.45,0.97c-2.92-1.49-6.5-1.37-8.37,1.43c-2.16,4.08,0.93,4.92,4.92,3.57c1.31,1.16-4.52,3.97-3.01,5.45
				c2.17,1.1,7.7-1.42,8.15,1.36c-3.07,6.47,5.29,0.53,6.39,3.76c-1.57,6.53,1.8,2.8,6.02,2.33c3.88,0.31,7.12,5.85,3.16,8.04
				c-1.03,0.65-1.54,0.97-2.13-0.32c-1.78-2.92-9.99-3.86-11.83-1.43c-0.6,1.64-3.6-0.4-4.99,0.33c-1.93,1.2,1.48,3.16,2.57,3.89
				c3.16,2.01,2.35,5.25,1.4,8.17c-0.66,1.75-2.5,0.58-3.38-0.06c-3.69-2.37-7.77-7.33-12.63-5.84c-0.95,2.04,2.29,3.91,1.69,5.97
				c0,0.13-0.15,0.19-0.22,0.19c-2.87,1.49-23-5.4-16.82,1.17c3.65,2.55,7.73,4.25,12.34,4.54c1.48,0.59-1.08,2.28-1.47,3.24
				c-0.63,4.14,7.27,1.43,9.7,2.92c1.43,1.25,0.07,3.26,2.79,3.31c4.57,0.17,7.3,0.33,6.83,5.12c0,0.19,0.22,0.32,0.44,0.19
				c2.2-0.92,3.87-5.33,5.8-4.61c0.15,0.71,0.15,2.27,0.96,2.66c0.45,0.2,1.16-0.23,1.62-0.13c3.12,2.03,3.11,6.44,6.83,7.91
				c1.17,0.58,2.13,1.49,2.35,2.72c0.29,2.27,1.91,2.14,3.82,2.59c2.06,0.45,3.6,2.2,5,3.7c2.93,1.48,5.7-3.07,8.08-4.28
				c0.07,0,0.07,0,0.15,0c0,0.06,0,0.06,0,0.13c-7.3,8.14-29.1,13.23-39.15,8.82c-1.76-0.91-5.8-3.57-7.93-2.92
				c-1.62,0.45-0.73,3.11-0.44,4.09c0.98,3.83-6.13,2.19-8.37,1.75c-3.16-1.89-5.73-1.68-8.52,1.04c-0.95,0.91,0.37,1.69,1.03,2.07
				c2.6,1.8,7.4,3.04,7.35,6.49c-0.22,1.1-1.1,3.18,1.03,3.11c1.95-0.02,6.52-1.12,6.02,2.01c-0.44,1.3-0.59,2.59,0.81,3.57
				c3.57,2.69,8.13-1.14,10.87-1.75c-3.04,2.31-2.04,7.34,2.65,6.36c1.86-0.25,5.64-1.75,6.39,0.39c-0.37,2.53-9.48,4.09-11.9,4.35
				c-7.39,1.86-10.44-3.52-16.31-4.09c-3.1,0.1,0.03,2.99-1.84,3.7c-6.76-0.25-22.12-1.55-6.54,4.41c1.62,0.65,4.04,1.75,3.6,3.7
				c-0.58,4.97,6.42,4.31,9.48,2.53c4.34,0.89-2.16,8.08,7.05,5.45c2.92-0.35-1.7,4.4,1.1,4.28c1.61-0.08,4.9-1.42,5.22,0.78
				c0.22,2.08,3.67-0.06,4.48-0.65c4.93-4.07,11.6-12.22,18.22-5.58c0.62,3.35-6.51,0.25-8.45,1.62c-3.6,1.49,2.5,7.52,3.08,9.27
				c0.15,0.39-0.22,0.78-0.59,0.71c-3.09-0.06-5.8,0.84-8.08,2.79c-1.69,1.2-2.6,1.64-5.36,1.95c-2.34,0.68-4.09,2.68-6.76,2.53
				c-7.46-0.52-14.12,2.85-21.67,2.14c-3.6-0.28-3.14,3.38-4.33,5.32c-2.95,2.45-8.67,1.6-12.56,2.21c-1.29-0.04-4.87-0.53-4.41,1.3
				c3.36,4,9.82,6.26,15.5,6.29c1.43,1.18-2.89,3.77-3.53,5.06c0.02,1.97,5.25,0.12,6.54,1.49c0.85,0.34-0.07,2.29-0.07,2.85
				c3.44,1.92,9.98-2.28,14.4-0.26c0.88,0.26,1.18,0.84,0.88,1.69c-1.62,4.41,2.06,3.7,3.89,1.49c1.06-0.63,2.06-4.28,3.45-4.22
				c-0.54,5.9,2.26,6.08,7.86,6.23c6.08,1.09,7.67-4.6,9.4-8.56c0.37-0.58,2.74,6.84,2.94,6.88c1.94-0.81,3.91-6.08,6.39-6.23
				c0.34,1.57-0.53,6.48,2.57,5.12c2.34-1.43,1.59-6.66,4.85-7.01c0.81,0.39,0.29,1.23,0,1.75c0.68,2.49,6.52-0.93,8.74,0.13
				c1.13,4.12-10.07,7.43-13.59,8.3c-2.2,0.52-4.63,0.19-6.83,1.36c-1.4,1.65-3.13,2.41-5.66,2.53c-3.07,0.65-9.09-0.81-11.46,1.43
				c0.73,3.05,4.85,4.8,7.79,5.32c2.42,0.39,4.92-0.39,7.27,0.52c1.7,1.46-2.29,2.62-3.53,2.85c-21.41,4.59-45.87-0.19-66.48,6.29
				c-1.43,1.41-8.14-1.56-7.93,1.49c0.88,2.33,5.07,3.83,7.42,4.22c1.62,0.32,7.22-0.01,5.22,2.72c-3.65,1.23-8.4,4.34-9.84,6.94
				c2.94,0.04,8.38-2.32,10.36,0.45c0.6,3.15,6.38-0.94,6.76,2.53c1.54,2.84,5.72,0.03,7.2-1.69c1.28-1.52,4.97-2.65,2.72,0.39
				c-4.5,4.08-4.41,6.97,2.87,4.86c1.54-0.58,2.64-3.63,4.77-1.62c3.99,10.24,8.87,2.17,15.28-0.65
				c-3.32,11.95,1.44,10.39,10.21,3.96c0.3-0.34,1.67-0.97,1.1-0.06c-0.96,1.62-4.48,7.46,1.4,5.71c2.74-1.47,5.95,2.85,7.27,1.62
				c0.15-0.91,0.44-1.69,1.62-1.95c3.69-1.13,2.65,2.44,4.7,3.44c3.05,0.79,6.19-0.6,9.18,0.26c-4.98,6.55-42.72,15.59-50.83,8.95
				c-6.46-4.42-11.64-0.79-2.94,2.85c-9.63,0.73-25.77-2.19-37.02-4.61c-1.69,0.53,1.37,2.66,1.98,3.18
				c5.36,4.09,12.26,5.74,19.03,6.62c-3.56,0.32-7.12-0.13-10.5,0.91c-7.8,7.31,18.97,2.35,8.37,8.37
				c-0.66,0.45-2.35,2.34-0.66,2.66c2.36,0.91,5.54-2.87,7.27-1.23c-0.13,6.54,11.4,1.44,15.57,0.78c4.11-0.75-10.25,5.57,1.69,4.15
				c2.6-0.26,2.83,2.08,3.08,3.83c2.32,1.73,5.65-4.03,7.93-5.71l0.07,0.06c0,0,0,0,0,0.06c-10.79,14.29-0.28,11.76,9.77,4.93
				c-1.06,11.8-17.84,11.85-27.77,15.37c-8.21,2.43-13.94-2.62-22.26-3.11c-4.26-0.66-11-0.57-5.8,4.02
				c0.51,0.52,0.44,0.78-0.37,0.71c-4.39,0.3-17.93-6.34-19.03-1.04c12.51,12.3,0.16,2.8-9.18,3.7c-7.81-0.45-10.48,2.48-1.76,5.38
				c5.19,2.28,11.21,1.82,15.5,2.4c-3.28,1.65-13.93,11.25-3.97,9.73c2.56-0.19,1.56,3.3,2.06,4.73c0.44,2.14,2.35,1.88,4.11,2.14
				c2.78,0.29,4.51,2.64,6.9,3.63c2.21,0.3,5.92-2.24,7.05-4.09c1.85-0.37,3.91,2.63,5,3.89c0.59,0.84,1.4,2.66,0.66,3.57
				c-0.5,0.61-2.06,0.27-1.84,1.36c0.1,0.34,1.13,1.6,0.22,1.75c-2.79,0.39-5.57-1.15-8.37-0.52c-2.13,3-7.06,2.23-10.72,2.53
				c-1.4,0.06-6.17,0.26-4.19,2.79c4.72,5.27,13,2.13,19.47,1.82c-1.65,2.12-11.48,3.74-10.72,8.24c1.61,3.83,6.62-0.43,9.62,0
				l0.07,0.13c0,0,0,0-0.07,0.06c-1.21,0.32-3.74,1.49-1.98,2.72c2.07,1.12,5.02-0.41,7.05-0.07c-0.09,0.7-2.78,1.61-2.64,2.72
				c-0.07,0.13,0,0.26,0.15,0.26c3.82,1.45,8.25-3.68,11.53-2.21c-0.01,1.89-3.33,1.83-3.16,3.5c1.85,3.79,12.27-4.29,10.14,1.49
				c-0.24,1.56,3.49-0.27,4.11-0.19c0.57,1.55-2.84,2.79-4.63,2.92c-14.16,1.49-31.64-0.74-45.91,1.3
				c-0.79,0.58,0.34,1.39,1.03,1.56c2.98,0.33,6,1.45,7.49,3.96c-3.38,4.62-14.37-0.06-18.36,5.06c-0.73,1.43,1.32,2.59,2.57,3.05
				c7.19,3.06,15.76-2.39,22.11-2.14c-1.47,2.62-11.74,9.75-4.19,10.44c3.1,0.54,10.1-5.23,10.73-0.97c0.67,2.5-0.33,6.37,2.5,7.65
				c4.55-0.65,8.9-3.78,11.46-6.62c3.85,2.25-1.15,7.22-0.81,10.38c7.49-0.21,13.76-11.19,20.57-13.75
				c-1.77,3.48-7.48,6.96-4.26,11.16c2.7,1.16,6.92-5.8,8.74-5.45c-0.53,2.54-0.04,6-3.45,6.94c-8.33,1.87-18.04,4.24-26.59,2.72
				c-3.84-1.69-8.6-3.36-12.85-2.53c-1.31,1,1.17,2.34,2.28,2.66c0.51,0.26,0.44,0.39-0.07,0.32c-2.94-0.13-5.88-0.32-8.74-0.45
				c-0.88,0.12-3.55-0.47-3.16,0.78c8.68,8.06-9.52,0.74-13,5.71c-1.18,1.3,2.5,2.2,3.38,2.27c17.03,0.79-9.34,6.56-10.8,10.96v0.32
				c5.94,3.43,15.57-4.47,20.93-2.47c-2.13,2.04-7.08,3.28-5.95,6.94c1.58,2.19,6.37-1.37,7.57,0.32c-0.78,1.24-3.96,3.81-2.2,4.99
				c4.51,0.06,7.77-3.52,11.53-5.19c1.09,1.22-1.02,3.63-0.51,5.19c1.21,0.5,3.39-2.96,4.41-2.01c0,0-1.03,3.05-1.03,3.05
				c0.85,1.45,7.19-6.41,8.96-3.96c0.74,2.16-2.44,5.59,2.72,4.34c3.93-0.88,6.93-3.9,10.87-4.41c1.65,2.48,5.19,0.85,7.93,0.78
				c-6.07,4.01-15.37,3.52-22.48,6.49c-1.47,0.58-3.45,1.69-2.42,3.44c3.8,3.41,10.31-1.28,14.91-0.84
				c-2.16,3.71-6.37,5.79-8.89,9.34c2,2.16,10.13-1.34,11.97-1.75c2.6-0.56,6.3-3.95,7.64-1.88c-0.58,2.38-5.48,5.54-4.19,8.5
				c1.4,0.91,5.58-1.36,5.95,0.97c0.46,6.38,6.06-2.27,8.37-1.62c-0.07,1.62-1.1,4.02,1.62,4.54c6.23,0.81,11.19-4.11,14.62-8.17
				c1.35-0.24-1.7,6.31-0.59,7.98c2.93,4.68,9.66-4.15,12.49-6.23c3.24-3.56,2.46,2.05,3.01,4.22c0.72,6.23,5.33,3.77,8.08,0.39
				c2.4-2.44,3.83,3.89,5.73,2.47c0.74-1.84,1.49-5.44,4.55-4.48c1.98,0.13,2.86-3.37,3.31-4.74c0.75-2.57,1.85-0.8,3.16,0.2
				c2.98,2.26,7.35,1.64,8.89-1.82c1.64-3.75,10.18-16.68,6.83-4.86c-0.07,1.33,1.51,0.7,2.5,0.19c5.13-2.13,6.59-5.32,7.86-9.02
				c2.71,8.33,4.8-2.96,4.33-6.1c0.1-3.63,2.01,0.74,3.6,1.3c1.66,1.46,5.35,0.01,5.88,2.46c0.62,13.06-2.43,24.78-9.11,36.26h41.21
				c1.99-1.62,0.56-4.2-0.15-6.1c-2.14-5.96-6.39-16.33-2.13-22.12c3.58,1.04,5.4,8.39,9.33,8.56c0.97-1.2-0.99-3.02-0.66-4.41
				c4.4,1.8,3.7,10.4,9.99,9.99c3.49-0.87,6.51,2.45,8.96,1.75c0.34-0.37,0.83-1.5,1.54-1.3c2.77,0.57,5.18,5.77,8.15,4.09
				c0.79-1.46-0.5-3.25-0.07-4.8c1.95,0.77,4.38,3.68,7.42,2.98c0.07,0,0.22-0.13,0.22-0.19c3.67-2.95,11.03-0.23,15.06,0.71
				c0.54,0.17,1.83,0.58,1.62-0.32c-0.37-1.23-1.18-3.37,0.51-4.22c3.95-1.43-3.48-4.26-1.47-5.84c5.36,0.32,17.21,9.47,10.14-0.97
				c1.72,1.5,3.97,2.13,6.32,1.43c1.81,0.15,2.61,5.15,4.7,6.36c0.81,0.78,1.61,0.91,2.5,0.32c4.72-4.6,6.63,1.14,9.55,3.96
				c1.87-4.02,2.03-9.07,6.54-2.92c2.6,2.85,8.47-2.57,6.68-4.93c-0.48-0.98-1.73-1.88-1.76-2.85c1.38-1.4-0.83-3.71-1.39-5.19
				v-0.26c5.72,2.14,18.8,19.31,19.76,4.67c-0.22-0.52-0.07-0.65,0.44-0.39c4.13,2.63,8.07,5.58,12.93,6.49
				c5.5,0.29-1.12-4.5-1.47-6.29c4.48-3.6,12.3,0.03,2.94-6.36c-1.19-0.64-5.05-4.07-1.39-3.18c6.3,1.6,11.79,6.96,18.22,7.07
				c2.86-1.65-2.57-4.03-4.19-4.74c-0.46-0.16-1.23-0.75-0.29-0.84c5.2-0.51,14.03,0.02,16.45-4.61
				c-14.97-1.78-33.06-1.77-46.06-9.4c-0.51-0.46-0.66-0.91-0.44-1.36c1.68-1.04,4.04,0.58,6.02,0.84c5.54,1.33,4.76-1.8,1.18-3.83
				c1.75-2.16,23.11,2.47,7.79-5.51c2.73-1.75,11.81,1.16,14.91-1.88c-0.69-3.05-7-2.92-9.7-3.89c0-0.06-0.07-0.06-0.07-0.06
				c0-0.02,0-0.15,0-0.13c3.04-0.31,14.13-0.67,8.23-4.35c-0.61-0.59-3.54-1.32-2.72-2.14c5.3-0.74,12.9,1.94,17.12,0.07
				c-2.65-3.71-8.38-2.66-11.46-5.25c-0.95-1.36,1.54-1.49,2.35-1.43c3.23,0.26,6.1,0.26,8.52,0.06
				c12.72-3.24-20.22-3.46-18.88-6.23c6.62-3.95,22.15-2.91,25.05-9.79c-8.02-1.6-16.5,2.44-24.9,3.57
				c-1.32-0.98,4.61-4.23,5.8-5.77c9.95-11.29-25.18,9.37-30.63,5.84c-16.61-1.86-31.74-9.75-46.57-16.6
				c-4.62-2.74-9.26-3.89-10.5-8.63c2.15-0.76,5.31,5.65,7.71,4.93c2.81-0.97,4.97,5.21,5.14-1.17c3.37-0.4,6.49,4.78,9.77,6.94
				c1.11-1.66-2.22-6.51-0.66-8.69c6.03-0.26,12.24,7.83,16.97,7.2c0.54-2.36-1.8-5.99-0.37-7.53c2.51,2.33,9.81,4.19,10.58-0.19
				c0.07-1.1,0.73-2.08,2.13-1.75c2.54,1.25,9.36,9.51,12.63,7.91c1.68-3.84-8.73-8.39-5.73-10.83c2.57,1.09,4.35-2.57,6.91-2.79
				c5.03-1.06,10.96,2,14.18-2.59c2.78-0.52,23.55,5.62,15.5-1.43c-3.75-3.01-13.06-3.87-14.62-6.74
				c7.56,1.01,21.23,5.77,26.81-0.45c-2.96-3.91-11.18-2.76-15.65-3.44c-1.32-0.06-1.32-0.19,0-0.52c2.34-0.61,8.33-1.69,6.83-4.54
				c-4.78-3.04-37.69,5.49-29.68-3.37c2.65-4.8-6.24-1.82-8.23-1.23c-6.02,6.88-72.85-11.79-60.23-16.73
				c1.46,0.24,4.24,1.29,4.48-0.71c0.3-0.85,1.66-0.57,2.42-0.39c10.25,4.5,22.32,5.2,33.79,5.38c2.87-0.72-1.13-3.72-1.98-4.93
				c0,0,0,0,0-0.06l0.07-0.06c2.63,0.83,8.19,8.48,10.21,5.13c0.37-0.77-0.21-2.36,0.73-2.53c2.58,0.53,4.63,2.7,7.27,3.11
				c3.58-0.68,6.73-3.83,10.65-4.93c3.57-1.66-3.63-3.57-3.01-4.93c3.05,0.03,5.86,2.38,8.89,1.88c3.74-6.61,16.61-3.67,22.18-8.82
				c0.15-0.32,0.51-0.45,0.81-0.32c2.04,1.05,6.14,0.16,6.76-1.75c-4.66-2.11-8.03-0.82-6.76-6.81
				C1153.11,1409.51,1147.63,1410.82,1154.27,1408.24z M1114.76,1381.19c3.82,1.62,3.16,2.94-0.66,1.23
				C1110.35,1380.8,1110.93,1379.45,1114.76,1381.19z M1111.74,1342.53c2.6,0.09,2.61,1.27-0.07,1.1
				C1109.09,1343.6,1109.14,1342.39,1111.74,1342.53z M1068.55,1251.47c4.28-1.88,3.05,6.02-0.07,0.52
				C1068.33,1251.86,1068.33,1251.6,1068.55,1251.47z M962.78,1087.7c-0.61,0.65-1.69-0.4-2.2-0.84c-1.99-2.45-4.98-4.16-7.93-5.25
				C939.56,1068.58,965.62,1079.62,962.78,1087.7z M823.21,1442.81c-0.66,1.21-3.82,2.07-3.75,0.52
				C820.13,1442.46,824.47,1440.57,823.21,1442.81z M869.86,1521.55c-1.73-0.41,0.11-1.73,0.88-2.21
				C872.87,1518.17,873.01,1522.19,869.86,1521.55z M882.71,1459.54c-6.83,4.62-14.61,3.73-22.4,4.02
				c-0.85,0.27,0.78,1.81-0.59,1.75c-3.81-0.36-6.7-3.47-10.58-3.11c-1.26,1.71-3.58,1.21-5.44,0.07c-0.84-2.7,4.21-5.01,5.73-7.33
				c0.43-0.37,7.2,7.09,7.49,7.14c2.9-1.71,4.85-10.8,8.37-3.89c2.73,2.09,2.15-5.04,5.07,2.21c0.76,1.71,3.64,3.07,3.67,0.32
				C875.85,1458.91,880.72,1459.02,882.71,1459.54z M889.54,1457.27c-0.88,0.78-3.6,1.36-4.7,1.23
				C883.76,1457.12,889.95,1455.45,889.54,1457.27z M931.12,1269.57c-4.13,2.61-9.38,6.13-13.88,5.45c-0.15-0.2-0.15-0.46,0.07-0.65
				C921.21,1272.44,927.08,1269.27,931.12,1269.57z M945.81,1174.94c-7.47,3.56-29.91,9.49-30.26-2.72
				c-0.22-1.43,1.17-1.88,2.5-1.56c4.36,2.52,9.3,8.23,14.69,3.31c1.03-0.97,3.23-2.92,4.92-2.4c1.17,0.31,0.15,1.7,0,2.33
				c-0.27,1.82,3.3,1.06,4.19,0.39c0.73-0.39,1.18-1.1,1.76-1.56C945.96,1170.98,948.38,1173.19,945.81,1174.94z M1069.8,1335.92
				c-6.35-1.18,10.15-2.81,9.99-0.32C1076.59,1336.36,1073.58,1335.93,1069.8,1335.92z"/>
			<path class="st3" d="M1569.23,1459.85c3.13-1.13,7.1-1.68,9.69-3.76v-0.13c-8.17-0.4-17.57,2.63-24.92,0.25
				c0.29-1.04,2.02-0.29,2.07-1.59c-7.06-2.24-16.29-0.4-23.47-3.88c-1.16-0.54-1.45-1.79,0.19-1.96c1.58-0.03,3.49-0.11,4.1-1.46
				c0.82-0.38,2.6,0.79,2.89-0.42c0.09-0.24,0.14-0.53,0.43-0.58c3.32,1.25,5.49,2.84,9.74,2.3c-1.14-1.27-3.29-2.38-4.63-3.67
				c-0.07-0.32,10.45-0.42,10.03-0.79c0.01-0.15-7.79-3.12-6.99-3.22c5.46,0.98,8.6-2.86,12.58-4.97c5.26-2.75,3.88-5.96-2.26-4.05
				c-2.23,0.12-8.88,3.85-9.54,0.88c-0.03-0.62,0.8-1.8,0.15-2.46c-3.07-0.07-6.29,1.6-9.11,2.09c-7.16,0.71-15.74-2.06-21.59-5.34
				c-0.63-0.84,1.04-1.01,1.69-1.09c2.27-0.11,4.67,0.29,6.17-1.46c1.8-0.07,2.84,1.94,4.58,2.21c2.53,0.48,4.92-0.14,7.62-0.71
				c3.04-0.82-2.01-2.68-1.49-3.51c2.2,0.08,7.18,3.61,5.45-0.33c-0.19-0.67,0.82-0.84,1.3-0.88c0.58,0,1.74-0.04,2.07-0.5
				c0.23-1.12-0.62-2.46,1.11-3.05c0.58-0.95-1.17-1.62-1.74-2.34c-0.77-2.21,3.44-3.44,4.1-5.51c0.1-0.21-0.05-0.46-0.29-0.54
				c-7.44,0.54-14.51,4.52-22.22,4.05c-7.55-0.91-10.65-7.95,0-4.22c0.58,0.17,2.51,0.54,2.75-0.33c0.04-1.68-3.64-3.46-4.58-4.76
				c1.49-1.03,5.15,0.6,6.84-0.92c1.01-1.14-1.28-1.6-2.27-1.59c-0.58-0.04-0.58-0.17-0.1-0.42c1.83-0.79,3.9-1.55,4.29-3.59
				c-10.26,1.92-25.77,3.56-35.91-1.46c3-0.41,4.38-0.24,3.18-3.38c-0.14-0.25,0.12-0.53,0.39-0.38c1.83,1.27,3.81,2.85,6.22,3.01
				c0.71-0.13,0.6-1.12,1.59-0.92c1.37,0.06,3.06,0.69,3.52-0.84c1.26-1.07,3.36-0.4,4.77-1.04c1.24-2.03-6.26-5.16-6.12-6.26
				c22.92,4.09,4.24-3.1,18.7-4.26c0.63-0.04,2.55-0.5,1.69-1.34c-0.58-0.58-1.88-0.79-2.75-1.04c0.81-0.74,4.94,0.64,5.49-1.13
				c-0.05-0.92,0.24-1.21,1.2-1.34c0.68-2.52-3.81-2.98-6.27-2.3v-0.08c-0.05-0.04,0-0.08,0.05-0.13c4.06-2.13-0.65-2.22-3.04-1.75
				c-1.29-0.26,0.96-2.23-0.29-2.34c-0.05,0.04-0.1,0.04-0.14,0.04c-3.81,1.74-8.41,1.3-12.39,2.67c-0.53,0.12-0.53,0.04-0.14-0.25
				c1.52-1.5,5.77-3.42,5.11-5.22c-1.25,0.08-5.72,2.89-5.69,0.92c0.68-0.79,1.88-1.84,1.83-2.84c-0.05-0.96-1.59-0.17-1.98,0.13
				c-1.59,1.25-3.28,2.3-5.06,3.22c-6.72,2.93-22.26,1.51-25.69-4.88c-0.05-1.29-1.08-2.31-1.93-3.38c0.97-1.46,2.28,1.34,3.04,1.8
				c3.33,1.27,6.33,0.13,10.22,1.38c2.36,0.77,1.67-2.15,1.74-3.38c2.2,0.7,4.36,2.55,6.84,3.09c1.97,0.38,1.81-1.8,0.58-2.51
				c2.81-1.5,7.68,0.62,11.18,0.08c3.82-0.65,4.67-1.18,1.74-3.76c-0.8-1.73,4.02-1.14,4.53-2.84c0.63-1.09-1.73-1.17-2.31-1.25
				c3.33-2.51,8.29-4.25,11.47-7.35c-3.24-0.76-6.43-0.73-8.63-2.84c-1.42-0.19-2.92,0.42-4.34,0.5c-0.92-0.42,2.6-2.51,0.34-3.22
				c-1.11-0.33-2.84,0.38-3.81,0.92c-3.41,1.85-7.88,2.16-11.9,1.8c-0.43-0.08-0.48-0.25-0.1-0.42c1.4-0.71,2.8-1.04,2.6-2.88
				c-0.23-0.73,0.14-3.56-1.49-2.55c-4.83,2.98-10.54,4.29-16.29,2.59c-7.06-1.87-16.84-4.89-21.26-9.9
				c1.51,0.12,3.1,1.84,4.53,1.34c0.45-0.38-0.09-2.94,0.82-1.96c0.43,0.67,1.45,2.38,2.6,2.09c2.02-0.67,4.47,2.07,6.31,2
				c0.7-1.01-0.35-3.47,0.92-3.97c2.53,2.24,8.83,6.02,8.24,0.04c0.46-0.76,0.95,2.72,1.64,3.26c1.33,0.28,2.86,0.64,4.24,1.3
				c2.31,0.88,2.84-2.96,5.21-2.51c0.98-0.97-0.67-2.76-0.19-4.01c0.05-0.04,0.1-0.08,0.14-0.13c2.92,0.53,8.68,3,4.43-1.71
				c-0.21-0.19,0.04-0.61,0.34-0.58c5.57,0.27-1.73-2.61,0.19-4.34c2.51-0.06,3.62,3.32,6.41,2.8c1.8-0.21,4.64,0.06,2.41-1.96
				c-1.25-1.5,0.05-2.38,1.69-2.38c2.94-0.04,5.4-2.25,7.52-3.84c-3.11-0.92-9.36,0.65-11.04-0.67c0.42-0.81,2.46-2.22,1.4-2.8
				c-1.9,0.11-13.61,8.04-8.68,2c0.28-0.25-0.21-0.36-0.39-0.25c-1.8,0.73-3.27,0.26-1.83-1.42c0.35-0.61,2.37-1.82,1.4-2.38
				c-5.53,1.32-8.79,7.85-15.14,6.39c-4.65-1-21.57-5.28-19.28-10.44c1.93-0.14,4.05,0.29,4.87,1.96c2.31,2.3,5.71,1.88,4-1.75
				c1.98,0.59,3.45,3.61,5.98,4.09c1.05,0.38,3.65,0.55,3.23-1.17c-1.76-11.93,6.98,2.37,12.1-1.13c0.06-1.81-6.43-4.5-5.64-6.18
				c2.72-0.62,2.68,2.22,4.53,2.34c0.68-0.17,1.11-0.08,1.54,0.38c0.75,0.99,5.58,1.82,5.74,0.63c0,0-2.51-1.8-2.51-1.8
				c0.07-1.86,4.91-2.07,6.65-2.67c0.12-0.99-2.31-1.53-3.23-2.25c1.76-0.97,7.47,1.24,9.54-1.8c2.24-4.6-8.72-1.22-9.49-3.8
				c0.24-0.46,0.43-1-0.29-1.25c-4.55-1.07-8.19,2.89-12.72,3.09c-0.44-0.49,0.23-1.28,0.19-1.88c0.05-1.38-2.7-0.25-2.36-1.88
				c0.05-0.42,0.19-0.88,0.34-1.38c-0.66-1.65-5.12,2.05-5.78,0.42c0.73-1.64-0.14-4.28-2.17-2.05c-2.86,2.31-7.43,5-11.52,4.59
				c-12.52-2.27,0.02-2.8-4.1-6.14c-2.75-0.56-5.87,0.28-8.53-0.46c-4.31-1.17-7.43-9.07-5.54-12.19c2.04,1.1,0.1,4.42,1.4,6.05
				c3.14,6.14,6.8,6.26,7.28-0.88c1.12,2.06,3.06,6.76,7.76,6.18c3.8,0.39-3.22-6.04,1.11-4.22c0.9,0.12,0.48-1.2,1.2-1.46
				c0.58-0.33,1.25-0.04,1.45,0.5c0.71,3.06,4.08,5.35,7.13,6.64c2.62,0.2,0.82-4.2,3.04-4.43c1.07,0-0.18-1.9,0.53-1.25
				c1.07,1,1.97,2.27,3.47,2.71c1.6-0.59,3.02-1.1,4.92-1.38c12.38-4.04,2.42-2.82-0.19-7.56c-3.03-1.74-7.95-0.73-10.65-3.34
				c-0.14-0.83,2.1-1.07,1.69-2.63c-1.81-2.01-6.01-1.29-7.95,0.21c-1.06,1-7.99,2.04-3.57-0.42c0.94-0.61,3.77-0.4,3.28-1.84
				c-0.26-0.61-1.49-1.34-1.01-1.92c2.21-0.31,7.22-1.25,6.7-3.76c-2.68-0.89-5.83-1-8.53-1.38c-0.77-0.08-2.07-0.33-1.64-1.34
				c1.65-3.86,2.62-3.17,5.69-1.29c0.58,0.29,1.4,0.63,1.73-0.17c0.24-0.58,0.96-2.71,1.98-2.46c0.41,0.08,0.97,0.33,1.11-0.17
				c0.19-1.21,1.49-1.25,2.55-1.34c4.91-1.37-1.13-4.53-3.95-3.92c-3.26-0.37-1.2-2.43,0.67-3.05c0.53-0.34,0.09-0.87,0.34-1.25
				c0.77-0.96,2.12-1.59,3.18-2.21c4.13-3.17-4.57-2.83-6.6-2.76c0.71-2.17,5.62-4.78,4.14-7.48c-0.82-0.83-1.59-0.67-2.46-0.08
				c-2.21,0.87-4.55,5.94-6.94,4.55c-0.48-0.59-2.12-2.84-3.13-2.26c-2.68,1.96-4.1,5.59-5.06,8.27c-1.3,3.22-4.91,5.52-7.86,7.68
				c-1.23,0.6-3.6,2.93-4.53,1.5c-0.75-3.39,0.19-6.96-0.67-10.27c-1.6-1.96-1.53-6.36,0.96-7.93c7.35-2.56,1.54,1.4,4.72,3.09
				c2.26,0.37,3.07-2.7,5.06-2.97c1.35,1.13,4.02,1.07,5.35-0.08c-0.36-2.21-3.95-4.78-6.46-5.72c-2.64,0.18-6.23-1.92-1.35-1.96
				c1.66,0.37,15.32,2.04,11.18-1.46c-1.06-0.12-1.98-0.46-2.75-1.13c-0.92-0.79-1.78-1.8-3.18-1.17c-2.72-1.13,7.55-4.77,5.64-6.43
				c-3.73-0.2-8.04,2.13-10.99,4.18c-0.34,0.33-0.43,0.29-0.34-0.17c0.11-1.08,1.13-3.33-0.58-3.63c-3.43,1.91-4.28,6.43-5.78,8.98
				c-1.42-0.6-2.31,1.56-3.33,1.75c-1.94-8.22,7.01-13.78,10.46-20.38c-1.25-2.89-6.25,0.35-6.8,2.34c-3.2,5.72-3.48-2.76-3.08-5.05
				c0.21-2.89-1.84-5.28-4.24-6.97c-0.59,5.58,0.01,12.35-0.77,17.29c-9.96-11.06-12.7-7.04-3.81,2.34
				c4.29,1.5,4.22,19.94,1.2,10.82c-0.14-0.67-0.67-0.75-1.2-0.96c-1.11-1.5-0.74-3.42-1.01-5.09c-0.05-4.36-5.28-6.6-4.77-0.79
				c-2.08,1.97-5.47-3.66-8.24-2.76c-2.94,0.67,0.14,4.55,1.06,5.55c1.34,1.67,3.39,3.24,4.19,5.18c0.63,1.92-3.76,1-3.37,3.47
				c0.51,3.31,4.74,2.52,6.51,0.5c1.41,0.53,0.61,3.46,0.87,4.93c-0.68,1.84-3.9-1.07-5.4-1.42c-6.22-2.16-0.42,5.5,2.36,6.68
				c0.18,0.24,1.31,0.9,0.48,0.96c-1.67-0.5-3.53-0.21-4.05,1.55c-0.68,1.21-2.02,0.63-3.04,0.17c-2.84-1.38-5.55-3.09-8.15-4.47
				c-1.93-1.1-6.96-3.67-6.02,0.46c0.57,2.95,4.78,3.93,6.07,5.26c-1.54,0.13-5.3,0.33-5.98,2.01c-0.37,1.64,2.27,2.59,3.81,1.84
				c0.39-0.17,0.82-0.21,0.92,0.29c0.19,1.21,1.54,1.29,2.65,1.38c1.05,0.12-0.53,0.57-0.82,0.84c-1.09,1.21,4.23,3.02,3.62,3.76
				c-2.52,0.72-10.48,0.34-7.95,4.22c2.37,3.11,5.7-0.53,8.92,0.79c1.28,0.22,1,1.42,1.98,1.75c1.19,0.36,2.85,0.46,3.52-0.54
				c0.24-0.63,0.82-1,1.69-1.04c6.39-0.69,0.11,1.51-1.16,3.63c0.28,2.6,5.14,1.46,6.51-0.29c0.19-0.21,0.29-0.17,0.39,0.08
				c0.33,1.4-1.3,3.3,0.24,4.18c2,0.37,3.01-0.17,3.71-1.63c1.24,3.16,2.81-1.44,3.66-2.55c0-0.04,0.1-0.04,0.14,0
				c0.61,1.28,2.97,5.03,1.74,6.01c-6.32,1.09-14.03,2.45-19.95-0.71c-2.1-0.91-8.29-5.26-9.88-2.13c-0.19,1.25,4.43,3.34,5.49,3.88
				c-4.02,0.29-12.6-3.34-16-6.22c-2.56-2.54-8.16-1.38-4.77,2.09c0.14,0.17,0.14,0.33-0.1,0.42c-3.27,1.33-18.12,0.32-8.72,5.05
				c3.81,1.94,10.1,1.12,13.3,0.92c-1.75,1.04-4.53,1.93-5.25,3.84c-0.39,1,0.39,1.84,1.45,2.05c4.21,0.73,6.43-3.48,9.88-4.68
				c6.85-0.13-6.56,2.68-2.94,4.89c1.98,0.67,1.66,1.53,1.83,3.05c0.26,0.73,1.83,1.46,2.51,0.71c1.41-2.45,5.75-1.79,8-3.38
				c0.98-0.56,4.91-3.89,3.62-1.42c-1.51,2.65-6.77,3.12-7.13,6.05c1.56,2.46,4.98,0.51,6.6-0.92c1.35-0.46-1.09,3.08,0.63,3.3
				c2.07,0.36,3.76-4.91,5.59-3.93c1.2,1.51,1.45,1,2.6-0.12c1.34-1.16,3.37-0.45,5.01-0.83c4.47-0.69,7.75-3.96,8.19-7.35
				c3.15,8.59-13.36,12.59-19.71,16.58c-4.52-1.52-19.57-9.87-10.27,0.37c0,0.04,0,0.04-0.05,0.08h-0.05c0,0.04,0,0.04,0,0.04
				c-1.92-1.96-3.94-1.11-6.46-1.84c-2.18-0.81-7.41-3.75-5.74,0.46c-0.59,1.79-3.87,0.67-5.54,0.63c-1.92-0.96-4.26-0.88-5.49,0.92
				c-1.42,2.62,0.61,3.17,3.23,2.3c0.86,0.75-2.96,2.55-1.98,3.51c1.42,0.71,5.05-0.92,5.35,0.88c-2.01,4.17,3.47,0.34,4.19,2.42
				c-1.03,4.2,1.18,1.8,3.95,1.5c2.55,0.2,4.68,3.77,2.07,5.18c-0.67,0.42-1.01,0.63-1.4-0.21c-1.17-1.88-6.55-2.49-7.76-0.92
				c-0.4,1.05-2.36-0.26-3.28,0.21c-1.27,0.77,0.97,2.03,1.69,2.51c2.07,1.29,1.54,3.38,0.92,5.26c-0.43,1.13-1.64,0.38-2.22-0.04
				c-2.42-1.53-5.1-4.72-8.29-3.76c-0.62,1.31,1.5,2.52,1.11,3.84c0,0.08-0.1,0.13-0.14,0.13c-1.88,0.96-15.09-3.48-11.04,0.75
				c2.4,1.64,5.07,2.74,8.1,2.92c0.97,0.38-0.71,1.47-0.96,2.09c-0.42,2.66,4.77,0.92,6.36,1.88c0.94,0.81,0.05,2.1,1.83,2.13
				c3,0.11,4.79,0.21,4.48,3.3c0,0.12,0.15,0.21,0.29,0.12c1.44-0.59,2.54-3.43,3.81-2.97c0.1,0.46,0.1,1.46,0.63,1.71
				c0.29,0.13,0.76-0.15,1.06-0.08c2.04,1.31,2.04,4.15,4.48,5.09c0.77,0.38,1.4,0.96,1.54,1.75c0.19,1.46,1.25,1.38,2.51,1.67
				c1.35,0.29,2.36,1.42,3.28,2.38c1.92,0.95,3.74-1.98,5.3-2.76c0.05,0,0.05,0,0.1,0c0,0.04,0,0.04,0,0.08
				c-4.79,5.24-19.1,8.52-25.69,5.68c-1.16-0.59-3.81-2.3-5.21-1.88c-1.06,0.29-0.48,2-0.29,2.63c0.64,2.47-4.02,1.41-5.49,1.13
				c-2.07-1.22-3.76-1.08-5.59,0.67c-0.63,0.58,0.24,1.09,0.67,1.34c1.71,1.16,4.86,1.96,4.82,4.18c-0.15,0.71-0.72,2.05,0.67,2
				c1.28-0.01,4.28-0.72,3.95,1.29c-0.29,0.84-0.39,1.67,0.53,2.3c2.34,1.73,5.33-0.73,7.13-1.13c-2,1.49-1.34,4.73,1.74,4.09
				c1.22-0.16,3.7-1.13,4.19,0.25c-0.24,1.63-6.22,2.63-7.81,2.8c-4.85,1.2-6.85-2.27-10.7-2.63c-2.03,0.06,0.02,1.93-1.21,2.38
				c-4.44-0.16-14.52-1-4.29,2.84c1.06,0.42,2.65,1.13,2.36,2.38c-0.38,3.2,4.21,2.78,6.22,1.63c2.85,0.57-1.41,5.21,4.63,3.51
				c1.91-0.23-1.12,2.83,0.72,2.76c1.06-0.05,3.22-0.91,3.42,0.5c0.14,1.34,2.41-0.04,2.94-0.42c3.24-2.62,7.61-7.87,11.95-3.59
				c0.41,2.15-4.27,0.16-5.54,1.04c-2.36,0.96,1.64,4.84,2.02,5.97c0.1,0.25-0.14,0.5-0.39,0.46c-2.02-0.04-3.81,0.54-5.3,1.8
				c-1.11,0.77-1.7,1.05-3.52,1.25c-1.53,0.44-2.68,1.73-4.43,1.63c-4.9-0.34-9.26,1.84-14.22,1.38c-2.36-0.18-2.06,2.18-2.84,3.42
				c-1.94,1.58-5.69,1.03-8.24,1.42c-0.84-0.03-3.2-0.34-2.89,0.83c2.21,2.58,6.44,4.03,10.17,4.05c0.94,0.76-1.9,2.42-2.31,3.26
				c0.01,1.27,3.44,0.08,4.29,0.96c0.56,0.22-0.05,1.47-0.05,1.84c2.26,1.24,6.55-1.47,9.45-0.17c0.58,0.17,0.77,0.54,0.58,1.08
				c-1.06,2.84,1.35,2.38,2.55,0.96c0.7-0.41,1.35-2.75,2.26-2.71c-0.35,3.8,1.48,3.91,5.16,4.01c3.99,0.7,5.04-2.96,6.17-5.51
				c0.24-0.37,1.79,4.41,1.93,4.43c1.27-0.52,2.56-3.92,4.19-4.01c0.23,1.01-0.34,4.17,1.69,3.3c1.54-0.92,1.05-4.29,3.18-4.51
				c0.53,0.25,0.19,0.79,0,1.13c0.44,1.6,4.28-0.6,5.74,0.08c0.74,2.65-6.61,4.78-8.92,5.35c-1.45,0.33-3.04,0.12-4.48,0.88
				c-0.92,1.06-2.06,1.55-3.71,1.63c-2.02,0.42-5.97-0.52-7.52,0.92c0.48,1.96,3.18,3.09,5.11,3.42c1.59,0.25,3.23-0.25,4.77,0.33
				c1.11,0.94-1.5,1.68-2.31,1.84c-14.05,2.96-30.1-0.13-43.62,4.05c-0.94,0.91-5.34-1.01-5.21,0.96c0.58,1.5,3.33,2.46,4.87,2.71
				c1.07,0.21,4.74-0.01,3.42,1.75c-2.4,0.79-5.51,2.79-6.46,4.47c1.93,0.03,5.5-1.49,6.8,0.29c0.39,2.03,4.19-0.6,4.43,1.63
				c1.01,1.83,3.76,0.02,4.72-1.09c0.84-0.98,3.26-1.7,1.78,0.25c-2.95,2.63-2.89,4.49,1.88,3.13c1.01-0.38,1.73-2.34,3.13-1.04
				c2.62,6.59,5.82,1.39,10.03-0.42c-2.18,7.69,0.95,6.69,6.7,2.55c0.2-0.22,1.1-0.63,0.72-0.04c-0.63,1.04-2.94,4.8,0.92,3.67
				c1.8-0.95,3.91,1.83,4.77,1.04c0.1-0.58,0.29-1.09,1.06-1.25c2.42-0.73,1.74,1.57,3.08,2.21c2,0.51,4.06-0.39,6.03,0.17
				c-3.27,4.22-28.03,10.04-33.35,5.76c-4.24-2.84-7.64-0.51-1.93,1.84c-6.32,0.47-16.91-1.41-24.29-2.97
				c-1.11,0.34,0.9,1.72,1.3,2.05c3.51,2.63,8.05,3.7,12.48,4.26c-2.34,0.21-4.67-0.09-6.89,0.58c-5.12,4.71,12.45,1.51,5.49,5.39
				c-0.43,0.29-1.54,1.5-0.43,1.71c1.55,0.59,3.63-1.85,4.77-0.79c-0.09,4.21,7.48,0.93,10.22,0.5c2.7-0.49-6.72,3.59,1.11,2.67
				c1.7-0.16,1.86,1.34,2.02,2.46c1.52,1.12,3.71-2.59,5.21-3.67l0.05,0.04c0,0,0,0,0,0.04c-7.08,9.2-0.19,7.57,6.41,3.17
				c-0.69,7.6-11.7,7.63-18.22,9.9c-5.38,1.57-9.15-1.69-14.6-2c-2.8-0.43-7.22-0.37-3.81,2.59c0.34,0.33,0.29,0.5-0.24,0.46
				c-2.88,0.19-11.76-4.08-12.48-0.67c8.21,7.92,0.1,1.8-6.02,2.38c-5.13-0.29-6.87,1.6-1.16,3.47c3.4,1.47,7.35,1.17,10.17,1.54
				c-2.15,1.06-9.14,7.24-2.6,6.27c1.68-0.12,1.02,2.13,1.35,3.05c0.29,1.38,1.54,1.21,2.7,1.38c1.82,0.19,2.96,1.7,4.53,2.34
				c1.45,0.19,3.88-1.45,4.63-2.63c1.22-0.24,2.57,1.69,3.28,2.51c0.39,0.54,0.92,1.71,0.43,2.3c-0.33,0.39-1.35,0.17-1.2,0.88
				c0.07,0.22,0.74,1.03,0.14,1.13c-1.83,0.25-3.66-0.74-5.49-0.33c-1.4,1.93-4.63,1.44-7.04,1.63c-0.92,0.04-4.05,0.17-2.75,1.8
				c3.1,3.39,8.53,1.37,12.77,1.17c-1.08,1.36-7.54,2.41-7.04,5.3c1.06,2.47,4.34-0.28,6.31,0l0.05,0.08c0,0,0,0-0.05,0.04
				c-0.8,0.21-2.45,0.96-1.3,1.75c1.36,0.72,3.29-0.27,4.63-0.04c-0.06,0.45-1.83,1.04-1.74,1.75c-0.05,0.08,0,0.17,0.1,0.17
				c2.5,0.93,5.41-2.37,7.57-1.42c-0.01,1.21-2.19,1.18-2.07,2.26c1.22,2.44,8.05-2.76,6.65,0.96c-0.16,1,2.29-0.17,2.7-0.12
				c0.37,1-1.87,1.8-3.04,1.88c-9.29,0.96-20.76-0.47-30.12,0.84c-0.52,0.37,0.22,0.9,0.67,1c1.96,0.21,3.94,0.93,4.92,2.55
				c-2.22,2.97-9.43-0.04-12.05,3.26c-0.48,0.92,0.87,1.67,1.69,1.96c4.72,1.97,10.34-1.54,14.51-1.38
				c-0.97,1.69-7.7,6.28-2.75,6.72c2.03,0.35,6.63-3.37,7.04-0.63c0.44,1.61-0.22,4.1,1.64,4.93c2.98-0.42,5.84-2.43,7.52-4.26
				c2.52,1.45-0.75,4.65-0.53,6.68c4.92-0.13,9.03-7.2,13.5-8.85c-1.16,2.24-4.91,4.48-2.8,7.18c1.77,0.74,4.54-3.74,5.74-3.51
				c-0.35,1.64-0.03,3.87-2.27,4.47c-5.47,1.21-11.84,2.73-17.45,1.75c-2.52-1.09-5.64-2.16-8.43-1.63
				c-0.86,0.64,0.76,1.51,1.49,1.71c0.34,0.17,0.29,0.25-0.05,0.21c-1.93-0.08-3.86-0.21-5.74-0.29c-0.58,0.08-2.33-0.3-2.07,0.5
				c5.7,5.19-6.25,0.47-8.53,3.68c-0.77,0.83,1.64,1.42,2.22,1.46c11.18,0.51-6.13,4.22-7.08,7.06v0.21
				c3.9,2.21,10.22-2.88,13.74-1.59c-1.4,1.32-4.65,2.11-3.9,4.47c1.04,1.41,4.18-0.88,4.96,0.21c-0.51,0.8-2.6,2.45-1.45,3.22
				c2.96,0.04,5.1-2.27,7.57-3.34c0.71,0.79-0.67,2.33-0.34,3.34c0.79,0.32,2.23-1.91,2.89-1.29c0,0-0.67,1.96-0.67,1.96
				c0.56,0.93,4.72-4.12,5.88-2.55c0.49,1.39-1.6,3.6,1.78,2.8c2.58-0.57,4.54-2.51,7.13-2.84c1.08,1.59,3.41,0.55,5.21,0.5
				c-3.98,2.58-10.08,2.27-14.75,4.18c-0.96,0.38-2.27,1.09-1.59,2.21c2.49,2.19,6.77-0.83,9.78-0.54
				c-1.42,2.39-4.18,3.73-5.83,6.01c1.31,1.39,6.65-0.86,7.86-1.13c1.7-0.36,4.14-2.54,5.01-1.21c-0.38,1.53-3.6,3.56-2.75,5.47
				c0.92,0.58,3.66-0.88,3.9,0.63c0.3,4.11,3.98-1.46,5.49-1.04c-0.05,1.04-0.72,2.59,1.06,2.92c4.09,0.52,7.34-2.65,9.59-5.26
				c0.89-0.15-1.11,4.06-0.39,5.14c1.92,3.01,6.34-2.67,8.19-4.01c2.13-2.29,1.62,1.32,1.98,2.71c0.47,4.01,3.49,2.43,5.3,0.25
				c1.58-1.57,2.52,2.5,3.76,1.59c0.48-1.18,0.98-3.5,2.99-2.88c1.3,0.08,1.88-2.17,2.17-3.05c0.49-1.65,1.21-0.52,2.07,0.13
				c1.95,1.46,4.82,1.06,5.83-1.17c1.07-2.41,6.68-10.74,4.48-3.13c-0.04,0.86,0.99,0.45,1.64,0.13c3.37-1.37,4.32-3.42,5.16-5.8
				c1.78,5.36,3.15-1.9,2.84-3.92c0.06-2.34,1.32,0.48,2.36,0.84c1.09,0.94,3.51,0.01,3.86,1.59c0.41,8.41-1.59,15.96-5.98,23.34
				h27.04c1.31-1.04,0.37-2.7-0.1-3.93c-1.4-3.84-4.2-10.52-1.4-14.24c2.35,0.67,3.55,5.4,6.12,5.51c0.64-0.77-0.65-1.95-0.43-2.84
				c2.89,1.16,2.43,6.69,6.55,6.43c2.29-0.56,4.27,1.57,5.88,1.13c0.22-0.24,0.54-0.96,1.01-0.84c1.82,0.36,3.4,3.71,5.35,2.63
				c0.52-0.94-0.33-2.09-0.05-3.09c1.28,0.49,2.87,2.37,4.87,1.92c0.05,0,0.14-0.08,0.14-0.13c2.41-1.9,7.24-0.15,9.88,0.46
				c0.35,0.11,1.2,0.38,1.06-0.21c-0.24-0.79-0.77-2.17,0.34-2.71c2.59-0.92-2.28-2.75-0.96-3.76c3.52,0.21,11.29,6.1,6.65-0.63
				c1.13,0.97,2.6,1.37,4.14,0.92c1.19,0.1,1.71,3.32,3.09,4.09c0.53,0.5,1.06,0.59,1.64,0.21c3.1-2.96,4.35,0.73,6.27,2.55
				c1.22-2.59,1.33-5.84,4.29-1.88c1.71,1.83,5.56-1.65,4.39-3.17c-0.32-0.63-1.14-1.21-1.16-1.84c0.9-0.9-0.54-2.39-0.92-3.34
				v-0.17c3.75,1.38,12.34,12.43,12.97,3.01c-0.15-0.33-0.05-0.42,0.29-0.25c2.71,1.69,5.29,3.6,8.48,4.18
				c3.61,0.19-0.74-2.9-0.96-4.05c2.94-2.32,8.07,0.02,1.93-4.09c-0.78-0.41-3.31-2.62-0.91-2.05c4.13,1.03,7.73,4.48,11.95,4.55
				c1.87-1.06-1.69-2.6-2.75-3.05c-0.3-0.1-0.81-0.48-0.19-0.54c3.41-0.33,9.2,0.02,10.8-2.96c-9.82-1.15-21.69-1.14-30.22-6.05
				c-0.34-0.29-0.43-0.59-0.29-0.88c1.1-0.67,2.65,0.38,3.95,0.54c3.63,0.85,3.12-1.16,0.77-2.46c1.15-1.39,15.16,1.59,5.11-3.55
				c1.79-1.12,7.75,0.75,9.78-1.21c-0.45-1.96-4.59-1.88-6.36-2.51c0-0.04-0.05-0.04-0.05-0.04c0-0.01,0-0.09,0-0.08
				c1.99-0.2,9.27-0.43,5.4-2.8c-0.4-0.38-2.33-0.85-1.78-1.38c3.48-0.48,8.46,1.25,11.23,0.04c-1.74-2.39-5.5-1.71-7.52-3.38
				c-0.63-0.88,1.01-0.96,1.54-0.92c2.12,0.17,4,0.17,5.59,0.04c8.35-2.09-13.27-2.23-12.39-4.01c4.34-2.54,14.53-1.88,16.44-6.31
				c-5.27-1.03-10.83,1.57-16.34,2.3c-0.86-0.63,3.03-2.72,3.81-3.72c6.53-7.27-16.53,6.03-20.1,3.76
				c-10.9-1.2-20.83-6.28-30.56-10.69c-3.03-1.77-6.07-2.5-6.89-5.55c1.41-0.49,3.48,3.64,5.06,3.17c1.85-0.63,3.26,3.35,3.37-0.75
				c2.21-0.26,4.26,3.08,6.41,4.47c0.73-1.07-1.46-4.19-0.43-5.59c3.96-0.17,8.03,5.04,11.13,4.64c0.35-1.52-1.18-3.86-0.24-4.85
				c1.64,1.5,6.44,2.7,6.94-0.12c0.05-0.71,0.48-1.34,1.4-1.13c1.67,0.8,6.14,6.12,8.29,5.09c1.1-2.47-5.73-5.4-3.76-6.97
				c1.68,0.7,2.85-1.65,4.53-1.8c3.3-0.68,7.19,1.29,9.3-1.67c1.83-0.33,15.45,3.62,10.17-0.92c-2.46-1.94-8.57-2.49-9.59-4.34
				c4.96,0.65,13.93,3.71,17.59-0.29c-1.94-2.52-7.33-1.77-10.27-2.21c-0.87-0.04-0.87-0.12,0-0.33c1.53-0.39,5.47-1.09,4.48-2.92
				c-3.14-1.96-24.73,3.53-19.47-2.17c1.74-3.09-4.1-1.17-5.4-0.79c-3.95,4.43-47.8-7.59-39.52-10.77c0.96,0.15,2.78,0.83,2.94-0.46
				c0.2-0.54,1.09-0.36,1.59-0.25c6.73,2.9,14.65,3.35,22.17,3.47c1.88-0.47-0.74-2.39-1.3-3.17c0,0,0,0,0-0.04l0.05-0.04
				c1.73,0.54,5.37,5.46,6.7,3.3c0.25-0.49-0.14-1.52,0.48-1.63c1.69,0.34,3.04,1.74,4.77,2c2.35-0.44,4.42-2.46,6.99-3.17
				c2.34-1.07-2.38-2.3-1.98-3.17c2,0.02,3.84,1.53,5.83,1.21c2.45-4.26,10.9-2.36,14.56-5.68c0.1-0.21,0.34-0.29,0.53-0.21
				c1.34,0.68,4.03,0.11,4.43-1.13c-3.05-1.36-5.27-0.53-4.43-4.38C1568.47,1460.67,1564.88,1461.51,1569.23,1459.85z
				 M1543.3,1442.44c2.5,1.05,2.07,1.89-0.43,0.79C1540.41,1442.19,1540.79,1441.31,1543.3,1442.44z M1541.33,1417.55
				c1.71,0.06,1.71,0.82-0.05,0.71C1539.58,1418.23,1539.62,1417.46,1541.33,1417.55z M1512.99,1358.92c2.81-1.21,2,3.88-0.05,0.33
				C1512.84,1359.17,1512.84,1359,1512.99,1358.92z M1443.58,1253.48c-0.4,0.42-1.11-0.26-1.45-0.54c-1.3-1.58-3.26-2.68-5.21-3.38
				C1428.35,1241.17,1445.44,1248.27,1443.58,1253.48z M1352,1482.11c-0.43,0.78-2.51,1.34-2.46,0.33
				C1349.98,1481.88,1352.83,1480.66,1352,1482.11z M1382.61,1532.8c-1.13-0.26,0.07-1.11,0.58-1.42
				C1384.58,1530.63,1384.68,1533.22,1382.61,1532.8z M1391.04,1492.88c-4.48,2.97-9.58,2.4-14.7,2.59
				c-0.56,0.17,0.51,1.17-0.39,1.13c-2.5-0.23-4.39-2.23-6.94-2c-0.83,1.1-2.35,0.78-3.57,0.04c-0.55-1.74,2.76-3.23,3.76-4.72
				c0.28-0.24,4.72,4.57,4.92,4.59c1.91-1.1,3.18-6.95,5.49-2.51c1.79,1.35,1.41-3.25,3.33,1.42c0.5,1.1,2.39,1.97,2.41,0.21
				C1386.54,1492.47,1389.74,1492.54,1391.04,1492.88z M1395.53,1491.42c-0.58,0.5-2.36,0.88-3.08,0.79
				C1391.73,1491.32,1395.79,1490.25,1395.53,1491.42z M1422.81,1370.57c-2.71,1.68-6.15,3.95-9.11,3.51
				c-0.1-0.13-0.1-0.29,0.05-0.42C1416.3,1372.41,1420.15,1370.38,1422.81,1370.57z M1432.45,1309.64
				c-4.9,2.29-19.62,6.11-19.86-1.75c-0.14-0.92,0.77-1.21,1.64-1c2.86,1.62,6.1,5.3,9.64,2.13c0.67-0.63,2.12-1.88,3.23-1.54
				c0.77,0.2,0.1,1.09,0,1.5c-0.18,1.17,2.16,0.68,2.75,0.25c0.48-0.25,0.77-0.71,1.16-1
				C1432.54,1307.09,1434.13,1308.51,1432.45,1309.64z M1513.81,1413.29c-4.16-0.76,6.66-1.81,6.56-0.21
				C1518.26,1413.57,1516.29,1413.3,1513.81,1413.29z"/>
		</g>
	</g>
	<path class="st3" d="M721.36,854.53c1.6-2.08-6.89-10.67-6.6-14.67s1.71-5.72,0-9.43c-1.71-3.71-8.86-3.71-9.14,3.71
		s0.29,25.43-3.14,35.43s-10,11.14-18,4.57c-8.57,6.29-9.43,8.86-17.43-2.15c-8.86,7.28-11.72,7.01-16.57-5.28
		c-13.43,9.72-18.57,5.43-20.29-8c-0.54,0-7.59-2.06-11.28-4.21c-4.08-2.38-4.83-5.25-5.58-13.51c0,0-11.14,4.86-11.43-14.86
		c-2.29,1.43-4.29,2.86-5.43-14.29c-3.71,0-5.72-10.86,2.29-18.86c-6.29-0.86-6-17.72,9.43-20.65c-3.14-2.93-5.43-11.64,6-12.21
		c11.43-0.57,28.58,4.57,41.44,8s15.43,6.57,21.15,1.71c5.71-4.86,1.72-6.57-6.28-9.71c-24.51-9.63-29.64-31.66-32.81-55.41
		c-2.05-15.4-8.73-74.43-8.73-80.24c0-5.82-5.13-7.36-8.21-8.38c-3.08-1.03-10.27-8.9-10.61-15.23c-0.34-6.33-1.71-6.84-8.38-13.17
		c-6.67-6.33-2.57-17.79-3.08-18.65s-6.5-5.3-11.12-10.78c-4.62-5.48-6.5-12.15-4.96-11.63s6.84,5.13,10.27,7.19
		s11.46,6.33,12.15,1.88s-3.94-7.36-17.45-23.27c-13.52-15.91-11.29-21.9-10.09-21.04c1.2,0.86,11.63,12.83,15.57,14.03
		c3.94,1.2,7.36-2.05,6.16-4.79c-1.2-2.74-7.53-11.63-14.03-19.68c-6.5-8.04-6.84-25.84-6.33-25.66
		c0.51,0.17,8.04,11.29,14.03,21.04c5.99,9.75,12.32,13.17,13.86,12.15s4.96-7.7,3.94-9.24c-1.03-1.54-18.31-23.78-23.27-34.73
		c-4.96-10.95-2.57-21.22-2.22-20.53c0.34,0.68,4.11,9.58,10.09,18.14c5.99,8.55,19.68,26.35,22.24,27.38
		c2.57,1.03,5.82-0.86,4.79-2.74c-1.03-1.88-9.41-14.54-16.77-34.73s-9.24-27.38-6.84-27.38c2.4,0,2.74,1.54,8.9,10.09
		s7.01,15.91,13.35,30.8c6.33,14.89,15.23,23.61,18.31,20.87c3.08-2.74-2.05-10.27-7.02-25.49c-4.96-15.23-11.12-43.8-8.9-43.97
		c2.22-0.17,7.01,2.22,8.21,5.13c1.2,2.91,0,8.04,4.96,21.22c4.96,13.17,14.54,33.71,17.28,34.73c2.74,1.03,5.48-1.54,3.94-6.5
		s-6.33-22.41-7.19-30.97c-0.86-8.55,5.48-13.69,5.48-13.69s-0.68,4.96,0.51,10.44c1.2,5.48,8.55,29.09,12.32,38.5
		c3.76,9.41,7.53,6.5,7.87,4.62c0.34-1.88-0.17-6.5-0.34-14.03s2.57-9.07,2.57-9.07s0.34,1.2,2.05,6.67
		c1.71,5.48,10.09,29.26,15.57,41.92s6.33,18.82,12.32,27.2c5.99,8.38,8.55,14.71,9.58,17.11c1.03,2.4,7.36,3.94,12.83,8.73
		s14.89,21.04,17.62,29.09c2.74,8.04,0.86,35.25,1.03,56.12c0.17,20.87,6.84,38.33,13.86,52.01s17.28,22.24,20.02,24.3
		s14.54,0.51,20.36,2.22c5.82,1.71,14.03,8.9,15.4,9.41c1.37,0.51,13.35,0,18.31,2.74c4.96,2.74,13.99,11.2,18.67,19.95
		c4.68,8.75,9.97,10.17,11.39,17.09c1.42,6.92-2.85,8.75-3.05,8.14s-0.61-2.24-4.07-5.7s-8.55-5.29-15.06-3.05
		c-6.51,2.24-1.42,9.56-0.61,11.39s2.85,6.31,0,5.09s-15.46-12.21-21.57-12.21s-7.73,5.9-5.7,8.95c2.03,3.05,6.92,5.09,19.74,11.6
		c12.82,6.51,26.25,7.32,41.91,11.19c15.67,3.87,19.74,10.78,22.59,16.48s13.02,21.36,41.1,48.83
		c28.08,27.47,50.05,34.39,49.65,36.22c-0.41,1.83-3.26,0.61-11.39-2.24c-8.14-2.85-16.68-8.14-19.33-7.94s-1.22,3.87,4.48,9.97
		s16.68,12.21,20.35,15.06c3.66,2.85,15.26,9.97,12.21,11.8c-3.05,1.83-7.32-0.81-13.43-4.27s-13.63-10.58-23.2-17.09
		c-9.56-6.51-12-8.75-14.45-7.32c-2.44,1.42-0.61,5.29,4.48,10.38s16.28,15.06,25.84,21.97c9.56,6.92,21.97,12.41,22.79,15.46
		c0.81,3.05-4.07,4.48-10.58,1.83c-6.51-2.65-27.47-19.53-36.22-23.81c-8.75-4.27-7.73,0-2.24,7.12
		c5.49,7.12,28.89,21.77,22.79,23.6c-2.03,0.61-9.74-2.61-15.87-7.12c-12.27-9.03-25.77-22.99-27.67-20.14
		c-2.85,4.27,21.57,27.67,18.92,28.89c-2.65,1.22-20.14-13.02-28.28-24.01s-11.8-12-11.19-8.55s12.82,16.48,14.65,18.72
		s2.85,6.31,2.24,8.75c-0.61,2.44-6.51,0.81-9.36-4.27s-21.57-29.1-23.06-31.74c-1.49-2.65-5.83-2.85-6.04-0.81
		c-0.2,2.03,3.05,8.75,4.07,12.21c1.02,3.46,3.87,7.53,0,7.32c-3.87-0.2-15.06-21.36-16.68-23.6s-7.53,9.77-10.17,9.77
		s-4.27-7.32-6.92-10.99c-2.65-3.66-3.87-4.07-9.56-4.68s-5.49-8.14-9.16-11.6c-3.66-3.46-23.4-15.67-23.4-15.67
		s-1.42,2.03-7.32,2.03c-5.9,0-2.03-2.85-5.7-5.09c-3.66-2.24-12.51-5.47-39.38-18.05c-26.86-12.57-33.72-27.72-36.86-30
		c-3.14-2.29-1.71,3.71,0,7.43c1.71,3.71,3.43,7.14,8,14c4.57,6.86,2.1,10.9-6,17.43c-4.98,4.02-12.39,2.17-12.96,2.31
		c-0.57,0.14,1.14-1.99,1.57-2.99C715.52,867.06,716.09,861.4,721.36,854.53z"/>
</g>
</svg>
